<svg width="114" height="114" viewBox="0 0 114 114" fill="none" xmlns="http://www.w3.org/2000/svg">
<rect width="114" height="114" rx="18" fill="#FFFBF7"/>
<path d="M50.459 81.552C48.297 81.552 45.79 81.46 42.938 81.276C40.086 81.092 36.544 81 32.312 81C31.3 79.758 30.794 78.309 30.794 76.653C32.358 76.653 33.462 76.4 34.106 75.894C34.75 75.342 35.072 74.422 35.072 73.134V40.704C35.072 39.416 34.75 38.519 34.106 38.013C33.462 37.461 32.358 37.185 30.794 37.185C30.794 35.529 31.3 34.08 32.312 32.838C35.578 32.838 38.177 32.815 40.109 32.769C42.041 32.677 43.674 32.608 45.008 32.562C46.388 32.516 47.768 32.493 49.148 32.493C53.15 32.493 56.439 32.861 59.015 33.597C61.591 34.287 63.592 35.207 65.018 36.357C66.49 37.461 67.502 38.703 68.054 40.083C68.652 41.417 68.951 42.751 68.951 44.085C68.951 46.661 68.284 48.869 66.95 50.709C65.616 52.549 63.362 54.136 60.188 55.47C64.144 56.298 67.019 57.586 68.813 59.334C70.653 61.082 71.573 63.796 71.573 67.476C71.573 69.27 71.274 71.018 70.676 72.72C70.078 74.376 68.997 75.871 67.433 77.205C65.915 78.539 63.776 79.597 61.016 80.379C58.256 81.161 54.737 81.552 50.459 81.552ZM48.527 53.814C51.885 53.814 54.254 53.078 55.634 51.606C57.06 50.134 57.773 48.156 57.773 45.672C57.773 43.188 57.083 41.21 55.703 39.738C54.369 38.266 52.23 37.53 49.286 37.53C48.826 37.53 48.32 37.553 47.768 37.599C47.262 37.645 46.825 37.714 46.457 37.806V53.676C46.779 53.722 47.124 53.768 47.492 53.814C47.86 53.814 48.205 53.814 48.527 53.814ZM49.355 76.515C55.795 76.515 59.015 73.732 59.015 68.166C59.015 65.038 58.21 62.692 56.6 61.128C55.036 59.564 52.414 58.782 48.734 58.782C48.366 58.782 47.952 58.805 47.492 58.851C47.078 58.851 46.733 58.851 46.457 58.851V76.308C46.779 76.354 47.193 76.4 47.699 76.446C48.205 76.492 48.757 76.515 49.355 76.515ZM80.4886 81.897C78.3726 81.897 76.6706 81.276 75.3826 80.034C74.0946 78.746 73.4506 77.09 73.4506 75.066C73.4506 72.996 74.0946 71.34 75.3826 70.098C76.6706 68.856 78.3726 68.235 80.4886 68.235C82.5586 68.235 84.2376 68.856 85.5256 70.098C86.8136 71.34 87.4576 72.996 87.4576 75.066C87.4576 77.09 86.8136 78.746 85.5256 80.034C84.2376 81.276 82.5586 81.897 80.4886 81.897Z" fill="#C2541A"/>
</svg>
