<svg width="260" height="42" viewBox="0 0 260 42" fill="currentColor" xmlns="http://www.w3.org/2000/svg">
<path d="M11.44 33.32C10.1867 33.32 8.73333 33.2667 7.08 33.16C5.42667 33.0533 3.37333 33 0.92 33C0.333333 32.28 0.04 31.44 0.04 30.48C0.946667 30.48 1.58667 30.3333 1.96 30.04C2.33333 29.72 2.52 29.1867 2.52 28.44V9.64C2.52 8.89333 2.33333 8.37333 1.96 8.08C1.58667 7.76 0.946667 7.6 0.04 7.6C0.04 6.64 0.333333 5.8 0.92 5.08C2.81333 5.08 4.32 5.06667 5.44 5.04C6.56 4.98666 7.50667 4.94667 8.28 4.92C9.08 4.89333 9.88 4.88 10.68 4.88C13 4.88 14.9067 5.09333 16.4 5.52C17.8933 5.92 19.0533 6.45333 19.88 7.12C20.7333 7.76 21.32 8.48 21.64 9.28C21.9867 10.0533 22.16 10.8267 22.16 11.6C22.16 13.0933 21.7733 14.3733 21 15.44C20.2267 16.5067 18.92 17.4267 17.08 18.2C19.3733 18.68 21.04 19.4267 22.08 20.44C23.1467 21.4533 23.68 23.0267 23.68 25.16C23.68 26.2 23.5067 27.2133 23.16 28.2C22.8133 29.16 22.1867 30.0267 21.28 30.8C20.4 31.5733 19.16 32.1867 17.56 32.64C15.96 33.0933 13.92 33.32 11.44 33.32ZM10.32 17.24C12.2667 17.24 13.64 16.8133 14.44 15.96C15.2667 15.1067 15.68 13.96 15.68 12.52C15.68 11.08 15.28 9.93333 14.48 9.08C13.7067 8.22666 12.4667 7.8 10.76 7.8C10.4933 7.8 10.2 7.81333 9.88 7.84C9.58667 7.86667 9.33333 7.90667 9.12 7.96V17.16C9.30667 17.1867 9.50667 17.2133 9.72 17.24C9.93333 17.24 10.1333 17.24 10.32 17.24ZM10.8 30.4C14.5333 30.4 16.4 28.7867 16.4 25.56C16.4 23.7467 15.9333 22.3867 15 21.48C14.0933 20.5733 12.5733 20.12 10.44 20.12C10.2267 20.12 9.98667 20.1333 9.72 20.16C9.48 20.16 9.28 20.16 9.12 20.16V30.28C9.30667 30.3067 9.54667 30.3333 9.84 30.36C10.1333 30.3867 10.4533 30.4 10.8 30.4ZM35.2306 33.52C33.3373 33.52 31.6573 33.12 30.1906 32.32C28.724 31.4933 27.5773 30.2933 26.7506 28.72C25.9506 27.12 25.5506 25.1467 25.5506 22.8C25.5506 20.2933 25.9773 18.1867 26.8306 16.48C27.684 14.7733 28.8706 13.48 30.3906 12.6C31.9106 11.72 33.6573 11.28 35.6306 11.28C37.5506 11.28 39.2306 11.6933 40.6706 12.52C42.1373 13.3467 43.2706 14.5733 44.0706 16.2C44.8973 17.8 45.3106 19.7867 45.3106 22.16C45.3106 24.64 44.884 26.7333 44.0306 28.44C43.1773 30.12 41.9906 31.3867 40.4706 32.24C38.9506 33.0933 37.204 33.52 35.2306 33.52ZM35.5506 30.64C36.1106 30.64 36.5906 30.44 36.9906 30.04C37.4173 29.64 37.7373 28.9067 37.9506 27.84C38.1906 26.7467 38.3106 25.1733 38.3106 23.12C38.3106 20.6133 38.1906 18.72 37.9506 17.44C37.7106 16.1333 37.364 15.2533 36.9106 14.8C36.4573 14.3467 35.924 14.12 35.3106 14.12C34.7506 14.12 34.2573 14.32 33.8306 14.72C33.404 15.12 33.0706 15.8667 32.8306 16.96C32.6173 18.0533 32.5106 19.64 32.5106 21.72C32.5106 24.2 32.6306 26.08 32.8706 27.36C33.1373 28.64 33.4973 29.5067 33.9506 29.96C34.404 30.4133 34.9373 30.64 35.5506 30.64ZM57.3009 33.52C55.4076 33.52 53.7276 33.12 52.2609 32.32C50.7943 31.4933 49.6476 30.2933 48.8209 28.72C48.0209 27.12 47.6209 25.1467 47.6209 22.8C47.6209 20.2933 48.0476 18.1867 48.9009 16.48C49.7543 14.7733 50.9409 13.48 52.4609 12.6C53.9809 11.72 55.7276 11.28 57.7009 11.28C59.6209 11.28 61.3009 11.6933 62.7409 12.52C64.2076 13.3467 65.3409 14.5733 66.1409 16.2C66.9676 17.8 67.3809 19.7867 67.3809 22.16C67.3809 24.64 66.9543 26.7333 66.1009 28.44C65.2476 30.12 64.0609 31.3867 62.5409 32.24C61.0209 33.0933 59.2743 33.52 57.3009 33.52ZM57.6209 30.64C58.1809 30.64 58.6609 30.44 59.0609 30.04C59.4876 29.64 59.8076 28.9067 60.0209 27.84C60.2609 26.7467 60.3809 25.1733 60.3809 23.12C60.3809 20.6133 60.2609 18.72 60.0209 17.44C59.7809 16.1333 59.4343 15.2533 58.9809 14.8C58.5276 14.3467 57.9943 14.12 57.3809 14.12C56.8209 14.12 56.3276 14.32 55.9009 14.72C55.4743 15.12 55.1409 15.8667 54.9009 16.96C54.6876 18.0533 54.5809 19.64 54.5809 21.72C54.5809 24.2 54.7009 26.08 54.9409 27.36C55.2076 28.64 55.5676 29.5067 56.0209 29.96C56.4743 30.4133 57.0076 30.64 57.6209 30.64ZM87.8997 33.4C86.433 33.4 85.2597 33.0933 84.3797 32.48C83.4997 31.84 82.7797 31.04 82.2197 30.08C81.6864 29.12 81.2064 28.1467 80.7797 27.16C80.353 26.1467 79.8997 25.2267 79.4197 24.4C78.9397 23.5733 78.313 23.0133 77.5397 22.72V28.84C77.5397 29.6133 77.6997 30.1733 78.0197 30.52C78.3664 30.84 78.953 31 79.7797 31C79.7797 31.4267 79.6864 31.8133 79.4997 32.16C79.3397 32.5067 79.113 32.8267 78.8197 33.12H70.0197C69.3797 32.56 69.0597 31.8533 69.0597 31C69.8597 31 70.4197 30.84 70.7397 30.52C71.0864 30.1733 71.2597 29.6133 71.2597 28.84V7.16C71.2597 6.54667 71.0864 6.06667 70.7397 5.72C70.393 5.34667 69.673 5.16 68.5797 5.16V3.56C69.2464 3.21333 70.0197 2.89333 70.8997 2.6C71.8064 2.30667 72.6997 2.06667 73.5797 1.88C74.4597 1.69333 75.1797 1.6 75.7397 1.6C76.3797 1.6 76.833 1.74667 77.0997 2.04C77.393 2.30666 77.5397 2.78666 77.5397 3.48V21.28L81.9397 16.72C82.0997 16.56 82.2597 16.3733 82.4197 16.16C82.6064 15.92 82.6997 15.7067 82.6997 15.52C82.6997 15.1467 82.4064 14.8 81.8197 14.48C81.2597 14.16 80.713 14 80.1797 14C80.1797 13.04 80.4864 12.2267 81.0997 11.56H90.0997C90.4197 11.88 90.6197 12.2533 90.6997 12.68C90.8064 13.1067 90.8597 13.5467 90.8597 14C90.1397 14 89.593 14.12 89.2197 14.36C88.873 14.5733 88.553 14.8133 88.2597 15.08L82.1797 21.08C83.1664 21.24 83.993 21.56 84.6597 22.04C85.3264 22.52 85.953 23.28 86.5397 24.32C87.3664 25.7867 88.0064 26.9467 88.4597 27.8C88.9397 28.6267 89.3797 29.2533 89.7797 29.68C90.2064 30.1067 90.7664 30.44 91.4597 30.68L91.4997 31.64C91.4197 32.2 91.0464 32.64 90.3797 32.96C89.713 33.2533 88.8864 33.4 87.8997 33.4ZM98.4869 41.44C96.8335 41.44 95.5935 41.0933 94.7669 40.4C93.9402 39.7067 93.5269 38.88 93.5269 37.92C93.5269 37.28 93.6735 36.7067 93.9669 36.2C94.2869 35.6933 94.6869 35.3333 95.1669 35.12C95.8869 35.9733 96.9535 36.4 98.3669 36.4C99.1669 36.4 99.9802 36 100.807 35.2C101.66 34.4267 102.367 33.2 102.927 31.52H99.6469L93.4869 16.56C93.1669 15.7867 92.8869 15.2 92.6469 14.8C92.4069 14.4 91.8735 14.2 91.0469 14.2C91.0469 13.7467 91.1135 13.3067 91.2469 12.88C91.3802 12.4533 91.5935 12.08 91.8869 11.76H101.327C101.967 12.4533 102.287 13.2667 102.287 14.2C101.62 14.2 101.14 14.3733 100.847 14.72C100.58 15.0667 100.447 15.5067 100.447 16.04C100.447 16.2267 100.46 16.44 100.487 16.68C100.514 16.8933 100.567 17.12 100.647 17.36L104.367 28.2L107.007 16.84C107.087 16.4667 107.127 16.1467 107.127 15.88C107.127 14.76 106.474 14.2 105.167 14.2C105.167 13.7467 105.22 13.3067 105.327 12.88C105.434 12.4533 105.634 12.08 105.927 11.76H113.647C113.94 12.08 114.14 12.4533 114.247 12.88C114.38 13.3067 114.447 13.7467 114.447 14.2C113.78 14.2 113.26 14.36 112.887 14.68C112.54 15 112.247 15.5333 112.007 16.28L107.447 30.48C106.274 34.2667 105.007 37.04 103.647 38.8C102.314 40.56 100.594 41.44 98.4869 41.44ZM123.942 33.52C122.048 33.52 120.368 33.12 118.902 32.32C117.435 31.4933 116.288 30.2933 115.462 28.72C114.662 27.12 114.262 25.1467 114.262 22.8C114.262 20.2933 114.688 18.1867 115.542 16.48C116.395 14.7733 117.582 13.48 119.102 12.6C120.622 11.72 122.368 11.28 124.342 11.28C126.262 11.28 127.942 11.6933 129.382 12.52C130.848 13.3467 131.982 14.5733 132.782 16.2C133.608 17.8 134.022 19.7867 134.022 22.16C134.022 24.64 133.595 26.7333 132.742 28.44C131.888 30.12 130.702 31.3867 129.182 32.24C127.662 33.0933 125.915 33.52 123.942 33.52ZM124.262 30.64C124.822 30.64 125.302 30.44 125.702 30.04C126.128 29.64 126.448 28.9067 126.662 27.84C126.902 26.7467 127.022 25.1733 127.022 23.12C127.022 20.6133 126.902 18.72 126.662 17.44C126.422 16.1333 126.075 15.2533 125.622 14.8C125.168 14.3467 124.635 14.12 124.022 14.12C123.462 14.12 122.968 14.32 122.542 14.72C122.115 15.12 121.782 15.8667 121.542 16.96C121.328 18.0533 121.222 19.64 121.222 21.72C121.222 24.2 121.342 26.08 121.582 27.36C121.848 28.64 122.208 29.5067 122.662 29.96C123.115 30.4133 123.648 30.64 124.262 30.64ZM143.812 33.28C141.945 33.28 140.492 32.7067 139.452 31.56C138.412 30.4133 137.892 28.8667 137.892 26.92V15.92C137.892 15.4667 137.719 15.1467 137.372 14.96C137.025 14.7733 136.545 14.68 135.932 14.68V12.92C136.279 12.6267 136.999 12.32 138.092 12C139.212 11.6533 140.465 11.48 141.852 11.48C142.892 11.48 143.572 11.6 143.892 11.84C144.239 12.08 144.412 12.6667 144.412 13.6V27.04C144.412 27.84 144.545 28.4533 144.812 28.88C145.079 29.3067 145.545 29.52 146.212 29.52C146.772 29.52 147.305 29.3467 147.812 29C148.345 28.6533 148.785 28.2533 149.132 27.8V15.92C149.132 15.4667 148.932 15.1467 148.532 14.96C148.132 14.7733 147.585 14.68 146.892 14.68V12.92C147.265 12.6267 147.999 12.32 149.092 12C150.185 11.6533 151.479 11.48 152.972 11.48C154.012 11.48 154.719 11.6 155.092 11.84C155.465 12.08 155.652 12.6667 155.652 13.6V28.32C155.652 28.96 155.812 29.4933 156.132 29.92C156.479 30.3467 156.959 30.5867 157.572 30.64V31.76C157.145 32.2667 156.465 32.6533 155.532 32.92C154.625 33.16 153.745 33.28 152.892 33.28C152.012 33.28 151.239 33.0533 150.572 32.6C149.932 32.12 149.505 31.44 149.292 30.56C147.985 32.3733 146.159 33.28 143.812 33.28ZM160.258 33C159.964 32.7067 159.738 32.3867 159.578 32.04C159.418 31.6933 159.338 31.2933 159.338 30.84C160.111 30.84 160.658 30.68 160.978 30.36C161.324 30.0133 161.498 29.44 161.498 28.64V17.08C161.498 16.3867 161.311 15.8933 160.938 15.6C160.564 15.28 159.871 15.12 158.858 15.12V13.32C159.498 12.9467 160.258 12.6267 161.138 12.36C162.018 12.0667 162.884 11.84 163.738 11.68C164.591 11.4933 165.258 11.4 165.738 11.4C166.351 11.4 166.791 11.6133 167.058 12.04C167.351 12.4667 167.498 13.3867 167.498 14.8C167.791 14.24 168.218 13.6933 168.778 13.16C169.364 12.6 170.018 12.1467 170.738 11.8C171.458 11.4533 172.204 11.28 172.978 11.28C174.231 11.28 175.124 11.6 175.658 12.24C176.191 12.88 176.458 13.7067 176.458 14.72C176.458 15.8667 176.164 16.8 175.578 17.52C174.991 18.24 174.178 18.6 173.138 18.6C172.231 18.6 171.511 18.3467 170.978 17.84C170.444 17.3067 170.178 16.7067 170.178 16.04C170.178 15.6133 170.218 15.28 170.298 15.04C169.871 15.1467 169.458 15.2933 169.058 15.48C168.658 15.64 168.258 15.9067 167.858 16.28V28.28C167.858 28.8933 167.951 29.3867 168.138 29.76C168.324 30.1333 168.684 30.4133 169.218 30.6C169.778 30.76 170.604 30.84 171.698 30.84C171.698 31.2933 171.644 31.6933 171.538 32.04C171.431 32.3867 171.231 32.7067 170.938 33H160.258ZM185.506 33.4C184.546 33.4 183.572 33.2933 182.586 33.08C181.626 32.8667 180.732 32.56 179.906 32.16C179.106 31.76 178.452 31.2667 177.946 30.68C177.439 30.0667 177.186 29.3733 177.186 28.6C177.186 27.6667 177.452 26.92 177.986 26.36C178.519 25.7733 179.199 25.48 180.026 25.48C180.772 25.48 181.399 25.72 181.906 26.2C182.439 26.68 182.706 27.3067 182.706 28.08C182.706 28.4267 182.652 28.7333 182.546 29C182.439 29.24 182.279 29.5067 182.066 29.8C182.306 30.04 182.732 30.2133 183.346 30.32C183.959 30.4267 184.559 30.48 185.146 30.48C186.079 30.48 186.799 30.3067 187.306 29.96C187.812 29.6133 188.066 29.1867 188.066 28.68C188.066 27.88 187.639 27.2 186.786 26.64C185.932 26.0533 184.959 25.4667 183.866 24.88C182.879 24.3467 181.892 23.7867 180.906 23.2C179.946 22.5867 179.132 21.8267 178.466 20.92C177.826 20.0133 177.506 18.8667 177.506 17.48C177.506 15.72 178.239 14.2667 179.706 13.12C181.172 11.9733 183.252 11.4 185.946 11.4C187.812 11.4 189.306 11.64 190.426 12.12C191.546 12.5733 192.359 13.16 192.866 13.88C193.372 14.5733 193.626 15.3067 193.626 16.08C193.626 16.9067 193.359 17.5733 192.826 18.08C192.319 18.56 191.692 18.8 190.946 18.8C190.279 18.8 189.692 18.6 189.186 18.2C188.679 17.7733 188.426 17.2267 188.426 16.56C188.426 16.24 188.479 15.8933 188.586 15.52C188.692 15.1467 188.839 14.84 189.026 14.6C188.732 14.36 188.386 14.2 187.986 14.12C187.612 14.0133 187.159 13.96 186.626 13.96C185.746 13.96 185.066 14.1733 184.586 14.6C184.132 15 183.906 15.4933 183.906 16.08C183.906 16.9867 184.332 17.7333 185.186 18.32C186.066 18.9067 187.039 19.48 188.106 20.04C189.092 20.5467 190.052 21.0933 190.986 21.68C191.946 22.2667 192.746 23 193.386 23.88C194.026 24.76 194.346 25.8933 194.346 27.28C194.346 28.7733 193.919 29.9733 193.066 30.88C192.212 31.76 191.106 32.4 189.746 32.8C188.412 33.2 186.999 33.4 185.506 33.4ZM203.89 33.28C202.023 33.28 200.57 32.7067 199.53 31.56C198.49 30.4133 197.97 28.8667 197.97 26.92V15.92C197.97 15.4667 197.797 15.1467 197.45 14.96C197.103 14.7733 196.623 14.68 196.01 14.68V12.92C196.357 12.6267 197.077 12.32 198.17 12C199.29 11.6533 200.543 11.48 201.93 11.48C202.97 11.48 203.65 11.6 203.97 11.84C204.317 12.08 204.49 12.6667 204.49 13.6V27.04C204.49 27.84 204.623 28.4533 204.89 28.88C205.157 29.3067 205.623 29.52 206.29 29.52C206.85 29.52 207.383 29.3467 207.89 29C208.423 28.6533 208.863 28.2533 209.21 27.8V15.92C209.21 15.4667 209.01 15.1467 208.61 14.96C208.21 14.7733 207.663 14.68 206.97 14.68V12.92C207.343 12.6267 208.077 12.32 209.17 12C210.263 11.6533 211.557 11.48 213.05 11.48C214.09 11.48 214.797 11.6 215.17 11.84C215.543 12.08 215.73 12.6667 215.73 13.6V28.32C215.73 28.96 215.89 29.4933 216.21 29.92C216.557 30.3467 217.037 30.5867 217.65 30.64V31.76C217.223 32.2667 216.543 32.6533 215.61 32.92C214.703 33.16 213.823 33.28 212.97 33.28C212.09 33.28 211.317 33.0533 210.65 32.6C210.01 32.12 209.583 31.44 209.37 30.56C208.063 32.3733 206.237 33.28 203.89 33.28ZM220.336 33C220.043 32.7067 219.816 32.3867 219.656 32.04C219.496 31.6933 219.416 31.2933 219.416 30.84C220.189 30.84 220.736 30.68 221.056 30.36C221.403 30.0133 221.576 29.44 221.576 28.64V17.08C221.576 16.3867 221.389 15.8933 221.016 15.6C220.643 15.28 219.949 15.12 218.936 15.12V13.32C219.576 12.9467 220.336 12.6267 221.216 12.36C222.096 12.0667 222.963 11.84 223.816 11.68C224.669 11.4933 225.336 11.4 225.816 11.4C226.429 11.4 226.869 11.6133 227.136 12.04C227.429 12.4667 227.576 13.3867 227.576 14.8C227.869 14.24 228.296 13.6933 228.856 13.16C229.443 12.6 230.096 12.1467 230.816 11.8C231.536 11.4533 232.283 11.28 233.056 11.28C234.309 11.28 235.203 11.6 235.736 12.24C236.269 12.88 236.536 13.7067 236.536 14.72C236.536 15.8667 236.243 16.8 235.656 17.52C235.069 18.24 234.256 18.6 233.216 18.6C232.309 18.6 231.589 18.3467 231.056 17.84C230.523 17.3067 230.256 16.7067 230.256 16.04C230.256 15.6133 230.296 15.28 230.376 15.04C229.949 15.1467 229.536 15.2933 229.136 15.48C228.736 15.64 228.336 15.9067 227.936 16.28V28.28C227.936 28.8933 228.029 29.3867 228.216 29.76C228.403 30.1333 228.763 30.4133 229.296 30.6C229.856 30.76 230.683 30.84 231.776 30.84C231.776 31.2933 231.723 31.6933 231.616 32.04C231.509 32.3867 231.309 32.7067 231.016 33H220.336ZM238.739 33C238.126 32.3867 237.819 31.6667 237.819 30.84C238.619 30.84 239.179 30.6667 239.499 30.32C239.846 29.9733 240.019 29.4133 240.019 28.64V15.4H237.579V12.92C238.166 12.7867 238.632 12.6267 238.979 12.44C239.326 12.2533 239.646 12.0533 239.939 11.84C239.832 11.2267 239.752 10.6667 239.699 10.16C239.646 9.65333 239.619 9.06667 239.619 8.4C239.619 5.62667 240.352 3.56 241.819 2.2C243.286 0.813332 245.272 0.119999 247.779 0.119999C249.059 0.119999 250.112 0.386665 250.939 0.919998C251.766 1.42666 252.379 2.05333 252.779 2.8C253.179 3.54666 253.379 4.25333 253.379 4.92C253.379 5.90667 253.112 6.73333 252.579 7.4C252.072 8.06667 251.379 8.4 250.499 8.4C249.699 8.4 248.992 8.12 248.379 7.56C247.766 6.97333 247.459 6.30666 247.459 5.56C247.459 5.24 247.526 4.88 247.659 4.48C247.792 4.05333 248.126 3.64 248.659 3.24C248.579 3.10667 248.432 3 248.219 2.92C248.032 2.81333 247.859 2.76 247.699 2.76C247.272 2.76 246.872 2.97333 246.499 3.4C246.126 3.8 245.819 4.33333 245.579 5C245.366 5.66667 245.259 6.37333 245.259 7.12C245.259 7.92 245.326 8.68 245.459 9.4C245.619 10.12 245.806 10.7067 246.019 11.16C246.232 11.5867 246.419 11.8 246.579 11.8H250.419C250.419 12.3867 250.379 13.0267 250.299 13.72C250.219 14.3867 250.032 14.9467 249.739 15.4H246.339V28.28C246.339 28.8667 246.432 29.36 246.619 29.76C246.806 30.1333 247.179 30.4133 247.739 30.6C248.299 30.76 249.126 30.84 250.219 30.84C250.219 31.6667 249.912 32.3867 249.299 33H238.739ZM255.177 33.52C253.95 33.52 252.963 33.16 252.217 32.44C251.47 31.6933 251.097 30.7333 251.097 29.56C251.097 28.36 251.47 27.4 252.217 26.68C252.963 25.96 253.95 25.6 255.177 25.6C256.377 25.6 257.35 25.96 258.097 26.68C258.843 27.4 259.217 28.36 259.217 29.56C259.217 30.7333 258.843 31.6933 258.097 32.44C257.35 33.16 256.377 33.52 255.177 33.52Z" fill="currentColor"/>
</svg>
