<svg width="29" height="26" viewBox="0 0 29 26" fill="currentColor">
<g clip-path="url(#clip0_296_184)">
<path d="M12.51 0.0631253C12.6687 0.0627737 12.8275 0.0623822 12.9862 0.0619531C13.3178 0.0612823 13.6494 0.0613036 13.981 0.0617809C14.4033 0.0623036 14.8255 0.0607751 15.2478 0.0586803C15.5754 0.0573423 15.9029 0.0572722 16.2304 0.0575527C16.386 0.0575068 16.5416 0.0570411 16.6972 0.0561252C18.001 0.0493906 19.2652 0.118164 20.268 1.07417C20.6945 1.51906 21.011 2.04094 21.3411 2.56163C21.4056 2.66242 21.4702 2.76316 21.5348 2.86385C21.652 3.04632 21.7688 3.22901 21.8852 3.412C21.9992 3.60061 21.9992 3.60061 22.1037 3.70139C22.3665 3.71142 22.6275 3.71599 22.8904 3.71726C23.0549 3.71936 23.2194 3.72153 23.3839 3.72378C23.6433 3.72693 23.9026 3.72959 24.162 3.73081C25.5746 3.73879 26.6166 3.85089 27.6821 4.87183C28.4869 5.71966 28.7444 6.70018 28.7472 7.85986C28.7476 7.95132 28.7476 7.95132 28.748 8.04462C28.7487 8.24723 28.7489 8.44984 28.749 8.65245C28.7494 8.79843 28.7499 8.94441 28.7503 9.09039C28.7515 9.48585 28.7521 9.8813 28.7525 10.2768C28.7527 10.5242 28.7531 10.7717 28.7535 11.0192C28.7547 11.7948 28.7555 12.5704 28.7559 13.346C28.7563 14.239 28.7578 15.1319 28.7604 16.0249C28.7623 16.7167 28.7632 17.4085 28.7633 18.1003C28.7634 18.5128 28.7639 18.9253 28.7655 19.3377C28.767 19.7261 28.7671 20.1145 28.7664 20.5028C28.7663 20.6446 28.7667 20.7864 28.7676 20.9281C28.7746 22.134 28.6765 23.1291 27.939 24.1042C27.888 24.1824 27.8369 24.2606 27.7843 24.3411C26.976 25.2123 25.9933 25.5528 24.8437 25.5896C24.3623 25.5973 23.8811 25.5961 23.3996 25.5939C23.1824 25.5943 22.9652 25.5947 22.7479 25.5954C22.2215 25.5965 21.695 25.596 21.1686 25.5946C20.5544 25.5931 19.9403 25.5934 19.3261 25.5937C18.2297 25.5942 17.1334 25.593 16.0371 25.5907C14.9752 25.5886 13.9133 25.5879 12.8515 25.5889C11.6926 25.5899 10.5338 25.5901 9.37492 25.5888C9.25118 25.5886 9.12745 25.5885 9.00372 25.5884C8.91242 25.5883 8.91242 25.5883 8.81928 25.5882C8.39196 25.5877 7.96465 25.5879 7.53734 25.5883C6.96155 25.5888 6.38578 25.5878 5.81 25.5859C5.59912 25.5854 5.38823 25.5853 5.17734 25.5858C4.8887 25.5863 4.60011 25.5852 4.31147 25.5836C4.22874 25.5842 4.14601 25.5847 4.06077 25.5853C2.89295 25.5739 2.08844 25.18 1.23159 24.3859C0.502129 23.6137 0.255812 22.6185 0.252233 21.5719C0.251908 21.5099 0.251583 21.448 0.251248 21.3842C0.250279 21.1778 0.249933 20.9714 0.249595 20.7649C0.249041 20.6164 0.248453 20.4679 0.247835 20.3195C0.24598 19.8327 0.245059 19.346 0.244177 18.8592C0.243819 18.6912 0.243456 18.5232 0.243086 18.3551C0.241403 17.5653 0.240144 16.7755 0.239407 15.9857C0.238544 15.0763 0.236218 14.1669 0.232643 13.2576C0.229969 12.5532 0.228666 11.8488 0.228374 11.1444C0.228167 10.7244 0.227384 10.3044 0.22515 9.88445C0.223079 9.48882 0.222723 9.09322 0.223627 8.69759C0.22367 8.55323 0.223119 8.40887 0.221897 8.26451C0.211227 6.92859 0.423024 5.80403 1.32622 4.78472C1.54949 4.57942 1.78001 4.40702 2.03354 4.24306C2.10648 4.19092 2.17942 4.13879 2.25457 4.08507C2.83382 3.78935 3.41789 3.76624 4.05188 3.76698C4.2172 3.76515 4.38251 3.76327 4.54783 3.76134C4.80588 3.75929 5.06391 3.75781 5.32197 3.75729C5.57281 3.75643 5.82355 3.75338 6.07436 3.75006C6.15154 3.75051 6.22873 3.75097 6.30825 3.75144C6.74412 3.74735 6.74412 3.74735 7.11548 3.53119C7.26381 3.32068 7.40455 3.11007 7.53735 2.88889C7.61753 2.75832 7.61753 2.75832 7.69933 2.62511C7.81346 2.43808 7.92743 2.25094 8.04124 2.0637C8.61978 1.13988 9.27621 0.424583 10.3535 0.172733C11.0637 0.035227 11.79 0.0624579 12.51 0.0631253ZM9.90415 4.25266C9.78375 4.48104 9.6388 4.68651 9.48696 4.89404C9.44223 4.95782 9.39749 5.02159 9.3514 5.0873C9.26205 5.21417 9.17247 5.34088 9.08271 5.46745C9.01748 5.56066 9.01748 5.56066 8.95095 5.65576C8.89356 5.737 8.89356 5.737 8.83501 5.81988C8.7378 5.95712 8.7378 5.95713 8.75305 6.13889C8.12608 6.48361 7.58419 6.52439 6.88495 6.52151C6.69125 6.5229 6.49756 6.52438 6.30386 6.52592C5.99982 6.52741 5.69581 6.52821 5.39176 6.52757C5.0974 6.52734 4.80315 6.52987 4.5088 6.5328C4.41798 6.53188 4.32717 6.53096 4.23359 6.53001C4.1486 6.5312 4.06361 6.53239 3.97605 6.53361C3.90167 6.53367 3.82728 6.53373 3.75065 6.53379C3.43146 6.61802 3.3023 6.78449 3.09451 7.04167C3.02846 7.33832 3.02846 7.33832 3.03838 7.6687C3.03769 7.7307 3.037 7.7927 3.03629 7.85658C3.03453 8.06377 3.03592 8.27081 3.03731 8.478C3.03671 8.62676 3.03592 8.77552 3.03496 8.92428C3.03295 9.32792 3.03373 9.73152 3.03513 10.1352C3.03625 10.5576 3.03521 10.9801 3.03452 11.4025C3.03371 12.112 3.03477 12.8214 3.03688 13.5308C3.03929 14.351 3.03851 15.1711 3.03607 15.9912C3.03407 16.6955 3.03378 17.3997 3.03494 18.1039C3.03563 18.5245 3.03572 18.945 3.03426 19.3656C3.03298 19.761 3.03387 20.1564 3.03642 20.5518C3.03701 20.6969 3.03684 20.842 3.03587 20.9871C3.03466 21.1852 3.03617 21.3832 3.03838 21.5813C3.03854 21.6921 3.03871 21.803 3.03888 21.9172C3.10997 22.2892 3.25414 22.4223 3.53659 22.6597C3.73758 22.7623 3.84741 22.7616 4.07061 22.7621C4.14578 22.7625 4.22095 22.7629 4.2984 22.7633C4.38147 22.7633 4.46453 22.7633 4.55011 22.7633C4.68192 22.7638 4.68192 22.7638 4.81639 22.7643C5.11273 22.7653 5.40908 22.7656 5.70542 22.766C5.91713 22.7665 6.12883 22.7671 6.34054 22.7678C6.97724 22.7695 7.61395 22.7705 8.25065 22.7713C8.5504 22.7717 8.85015 22.7722 9.1499 22.7726C10.1462 22.7742 11.1425 22.7755 12.1388 22.7761C12.3974 22.7763 12.6561 22.7765 12.9147 22.7766C12.9789 22.7767 13.0432 22.7767 13.1094 22.7768C14.1508 22.7775 15.1921 22.7798 16.2334 22.7828C17.3023 22.7857 18.3711 22.7874 19.44 22.7877C20.0402 22.7878 20.6404 22.7886 21.2406 22.7909C21.8052 22.793 22.3698 22.7934 22.9344 22.7925C23.1418 22.7925 23.3491 22.793 23.5565 22.7943C23.8394 22.7959 24.1221 22.7952 24.405 22.794C24.4873 22.795 24.5695 22.796 24.6543 22.797C25.1541 22.7919 25.4379 22.7312 25.8171 22.3889C25.9177 22.0807 25.9171 21.8447 25.9179 21.5196C25.9182 21.4585 25.9184 21.3974 25.9187 21.3344C25.9195 21.1292 25.9196 20.924 25.9197 20.7188C25.9201 20.5718 25.9206 20.4249 25.9211 20.2779C25.9222 19.8784 25.9228 19.4789 25.9232 19.0793C25.9234 18.8298 25.9238 18.5803 25.9242 18.3307C25.9254 17.5502 25.9263 16.7696 25.9266 15.9891C25.927 15.0876 25.9286 14.1862 25.9311 13.2848C25.933 12.5882 25.9339 11.8917 25.934 11.1952C25.9341 10.779 25.9347 10.3629 25.9362 9.94676C25.9377 9.55536 25.9379 9.16399 25.9371 8.77259C25.937 8.62895 25.9374 8.48531 25.9383 8.34167C25.9394 8.14553 25.9389 7.94947 25.938 7.75334C25.9382 7.58872 25.9382 7.58872 25.9384 7.42078C25.9023 7.10403 25.8267 6.93389 25.6402 6.68056C25.4278 6.57209 25.2927 6.5779 25.0555 6.57604C24.9707 6.57512 24.886 6.57419 24.7987 6.57323C24.7068 6.57258 24.6149 6.57192 24.5202 6.57124C24.3262 6.5687 24.1321 6.56611 23.9381 6.56348C23.6317 6.55976 23.3254 6.55643 23.019 6.55405C22.7237 6.55155 22.4284 6.5474 22.133 6.54303C22.042 6.54273 21.951 6.54244 21.8572 6.54214C21.282 6.53215 20.8221 6.48775 20.361 6.10296C19.9626 5.59196 19.613 5.04912 19.2633 4.50261C19.1399 4.3104 19.0163 4.11832 18.8924 3.92638C18.8114 3.7998 18.8114 3.7998 18.7287 3.67067C18.6753 3.59143 18.622 3.51219 18.5671 3.43056C18.52 3.35266 18.4728 3.27475 18.4243 3.19449C18.1388 2.90301 17.8905 2.90872 17.5069 2.905C17.436 2.90262 17.3651 2.90023 17.292 2.89777C17.0575 2.89072 16.8231 2.8872 16.5885 2.88431C16.5081 2.88292 16.4277 2.88153 16.3448 2.8801C15.9189 2.8728 15.493 2.86818 15.0671 2.86577C14.6288 2.8628 14.1912 2.85104 13.7532 2.83715C13.4148 2.82801 13.0765 2.82542 12.738 2.82455C12.5766 2.82302 12.4153 2.8191 12.254 2.81265C10.979 2.76518 10.4927 3.09818 9.90415 4.25266Z" fill="currentColor"/>
<path d="M16.5335 7.67361C16.621 7.70433 16.7084 7.73505 16.7984 7.76671C18.3038 8.34629 19.5333 9.56955 20.2124 11.0541C20.3226 11.3393 20.4213 11.6245 20.5122 11.9167C20.5328 11.9793 20.5535 12.0419 20.5747 12.1064C20.9671 13.4611 20.7967 14.9722 20.247 16.25C20.2008 16.3622 20.2008 16.3622 20.1537 16.4768C19.5013 17.94 18.2587 19.0878 16.8158 19.6974C15.1594 20.3248 13.4375 20.2733 11.8207 19.5422C10.2048 18.7478 9.13698 17.3203 8.48159 15.6473C7.96328 13.9954 8.20012 12.2018 8.96338 10.6806C9.85015 9.1041 11.1623 8.03346 12.8861 7.54207C14.0404 7.25813 15.4139 7.25606 16.5335 7.67361ZM11.8123 11.363C11.1124 12.3147 10.9579 13.2911 11.0518 14.4444C11.2576 15.4976 11.8979 16.2292 12.7479 16.822C13.5781 17.3229 14.5539 17.3897 15.4836 17.1471C15.9936 16.969 16.4648 16.6805 16.8872 16.3403C16.8872 16.2807 16.8872 16.2211 16.8872 16.1597C16.9455 16.1597 17.0039 16.1597 17.064 16.1597C17.7416 15.3413 18.0135 14.4854 17.982 13.4228C17.8779 12.4002 17.3954 11.543 16.6275 10.8898C15.105 9.72039 13.1231 9.94847 11.8123 11.363Z" fill="currentColor"/>
<path d="M27.3201 24.6458C26.8671 25.2009 26.2428 25.44 25.5518 25.5486C25.2544 25.5617 24.9572 25.5604 24.6595 25.5595C24.5689 25.5595 24.4783 25.5596 24.3849 25.5597C24.0808 25.5599 23.7767 25.5594 23.4726 25.5589C23.2548 25.5588 23.0369 25.5588 22.8191 25.5589C22.3499 25.5589 21.8808 25.5587 21.4116 25.5582C20.7332 25.5574 20.0549 25.5572 19.3766 25.5571C18.276 25.5569 17.1754 25.5563 16.0748 25.5554C15.0057 25.5546 13.9367 25.554 12.8676 25.5536C12.8017 25.5535 12.7358 25.5535 12.6679 25.5535C12.3372 25.5534 12.0066 25.5533 11.6759 25.5532C8.93336 25.5522 6.19077 25.5506 3.44817 25.5486C3.44817 25.489 3.44817 25.4294 3.44817 25.3681C3.56297 25.3677 3.67776 25.3673 3.79604 25.3669C6.52072 25.3578 9.2454 25.3483 11.9701 25.3382C12.3054 25.3369 12.6407 25.3357 12.9761 25.3344C13.0762 25.3341 13.0762 25.3341 13.1784 25.3337C14.2594 25.3297 15.3405 25.326 16.4216 25.3225C17.5308 25.3188 18.64 25.3149 19.7492 25.3106C20.4337 25.3079 21.1182 25.3055 21.8027 25.3035C22.3274 25.3019 22.8522 25.2998 23.377 25.2976C23.5923 25.2967 23.8077 25.2961 24.023 25.2955C24.3167 25.2948 24.6104 25.2935 24.9041 25.2921C24.9896 25.292 25.0751 25.2919 25.1631 25.2918C25.5679 25.2893 25.9493 25.2721 26.3476 25.1875C26.3476 25.0981 26.3476 25.0088 26.3476 24.9167C26.2017 24.9167 26.0558 24.9167 25.9055 24.9167C25.9055 24.8571 25.9055 24.7975 25.9055 24.7361C25.9609 24.7306 26.0163 24.7252 26.0733 24.7195C26.1817 24.7082 26.1817 24.7082 26.2923 24.6966C26.3641 24.6893 26.4359 24.682 26.5099 24.6744C27.0839 24.5887 27.0839 24.5887 27.3201 24.6458Z" fill="currentColor"/>
<path d="M10.7866 2.79861C11.7619 2.79025 12.7371 2.78383 13.7124 2.7799C14.1653 2.77801 14.6181 2.77545 15.071 2.77137C15.5078 2.76745 15.9446 2.76529 16.3815 2.76435C16.5483 2.76368 16.7152 2.76238 16.882 2.76043C17.1153 2.75782 17.3485 2.75745 17.5818 2.75762C17.6512 2.75632 17.7205 2.75502 17.7919 2.75368C17.9846 2.75519 17.9846 2.75519 18.3018 2.79861C18.4618 2.98032 18.4618 2.98032 18.5671 3.15972C18.8435 3.18987 18.8435 3.18987 19.0976 3.15972C19.0976 3.07035 19.0976 2.98097 19.0976 2.88889C19.1559 2.88889 19.2143 2.88889 19.2744 2.88889C19.2744 2.97826 19.2744 3.06764 19.2744 3.15972C19.3327 3.15972 19.3911 3.15972 19.4512 3.15972C19.7391 3.95938 19.7391 3.95938 19.6446 4.38976C19.61 4.46051 19.5753 4.53127 19.5396 4.60417C19.6272 4.69354 19.6272 4.69354 19.7165 4.78472C19.7165 4.8741 19.7165 4.96347 19.7165 5.05556C19.7748 5.05556 19.8332 5.05556 19.8933 5.05556C19.8933 5.14493 19.8933 5.23431 19.8933 5.32639C20.01 5.38597 20.1267 5.44556 20.247 5.50694C20.247 5.62611 20.247 5.74528 20.247 5.86806C20.3053 5.86806 20.3637 5.86806 20.4238 5.86806C20.5113 6.04681 20.5113 6.04681 20.6006 6.22917C20.2786 6.09648 20.1358 5.93014 19.9375 5.64236C19.8467 5.51092 19.8467 5.51092 19.7541 5.37682C19.4457 4.91782 19.1437 4.45439 18.8434 3.98985C18.7782 3.88913 18.7782 3.88913 18.7118 3.78638C18.6732 3.72651 18.6347 3.66664 18.5949 3.60496C18.5566 3.54741 18.5182 3.48985 18.4787 3.43056C18.4472 3.36839 18.4157 3.30623 18.3833 3.24218C18.1678 3.02307 18.0056 3.02471 17.7091 3.01879C17.6064 3.01947 17.6064 3.01947 17.5015 3.02016C17.4291 3.01923 17.3566 3.01829 17.2819 3.01733C17.0422 3.01467 16.8026 3.01454 16.5629 3.01443C16.3968 3.01308 16.2306 3.01157 16.0645 3.00991C15.6271 3.00596 15.1898 3.00416 14.7524 3.0028C14.3061 3.00103 13.8599 2.99725 13.4136 2.99362C12.538 2.98682 11.6623 2.98228 10.7866 2.97917C10.7866 2.91958 10.7866 2.86 10.7866 2.79861Z" fill="currentColor"/>
<path d="M3.09452 6.86111C3.22314 7.12378 3.19377 7.35251 3.19356 7.64602C3.19368 7.74026 3.19368 7.74026 3.19379 7.8364C3.19394 8.04793 3.19345 8.25946 3.19297 8.47099C3.19294 8.62222 3.19296 8.77345 3.19301 8.92468C3.19303 9.33613 3.19251 9.74757 3.19189 10.159C3.19134 10.5887 3.19129 11.0183 3.19118 11.448C3.19091 12.262 3.19018 13.076 3.1893 13.8901C3.18831 14.8166 3.18782 15.7432 3.18738 16.6697C3.18645 18.5761 3.1849 20.4825 3.18293 22.3889C3.0954 22.3591 3.00787 22.3293 2.91769 22.2986C2.91356 20.3125 2.91044 18.3263 2.90852 16.3402C2.90761 15.418 2.90637 14.4959 2.90435 13.5738C2.90259 12.7703 2.90144 11.9668 2.90105 11.1633C2.90082 10.7376 2.90027 10.3119 2.89899 9.88628C2.89779 9.486 2.89742 9.08573 2.89769 8.68545C2.89764 8.5382 2.89728 8.39095 2.89661 8.2437C2.89573 8.04332 2.89594 7.84297 2.89642 7.64259C2.89626 7.53025 2.8961 7.4179 2.89593 7.30216C2.91769 7.04167 2.91769 7.04167 3.09452 6.86111Z" fill="currentColor"/>
<path d="M11.5923 0.078595C11.6972 0.0783577 11.6972 0.0783577 11.8043 0.0781156C12.0342 0.07772 12.2642 0.0779807 12.4941 0.0782864C12.6546 0.0782255 12.8151 0.0781379 12.9757 0.0780247C13.3116 0.0778918 13.6475 0.0780844 13.9834 0.0785068C14.4133 0.0790211 14.8432 0.0787248 15.2731 0.0781843C15.6044 0.0778576 15.9357 0.0779621 16.267 0.0781958C16.4255 0.0782559 16.584 0.0781826 16.7425 0.077972C16.9642 0.0777419 17.1859 0.0780934 17.4077 0.078595C17.5053 0.0783208 17.5053 0.0783208 17.6048 0.0780412C17.9642 0.0795419 18.3029 0.109504 18.6555 0.180554C18.6555 0.210346 18.6555 0.240138 18.6555 0.270832C18.4221 0.270832 18.1887 0.270832 17.9482 0.270832C17.919 0.330415 17.8898 0.389999 17.8598 0.451387C17.8598 0.391804 17.8598 0.332221 17.8598 0.270832C15.4964 0.300624 13.1331 0.330415 10.6982 0.36111C10.7565 0.480276 10.8149 0.599443 10.875 0.722221C10.7291 0.722221 10.5832 0.722221 10.4329 0.722221C10.4038 0.632846 10.3746 0.543471 10.3445 0.451387C10.1008 0.496306 10.1008 0.496306 9.90245 0.631943C9.75513 0.635612 9.60768 0.6358 9.46037 0.631943C9.54879 0.451387 9.54879 0.451388 9.71284 0.377684C9.78088 0.355457 9.84892 0.333229 9.91902 0.310328C9.98593 0.287868 10.0528 0.265408 10.1218 0.242268C10.6118 0.106497 11.0868 0.0771747 11.5923 0.078595Z" fill="currentColor"/>
<path d="M14.489 7.37457C14.6171 7.37523 14.6171 7.37523 14.7478 7.37591C15.768 7.39301 16.6838 7.64665 17.5945 8.125C17.6383 8.21438 17.6383 8.21438 17.6829 8.30556C17.4877 8.31047 17.2924 8.31395 17.0972 8.31684C16.9885 8.31894 16.8797 8.32103 16.7677 8.32319C16.4501 8.30583 16.2094 8.2426 15.9146 8.125C15.9146 8.06542 15.9146 8.00583 15.9146 7.94445C16.0313 7.91465 16.1481 7.88486 16.2683 7.85417C16.2245 7.80948 16.2245 7.80948 16.1799 7.76389C16.0778 7.76389 15.9756 7.76389 15.8704 7.76389C15.7683 7.76389 15.6662 7.76389 15.561 7.76389C15.5172 7.7192 15.5172 7.7192 15.4726 7.67361C14.8144 7.53295 13.9903 7.4559 13.3506 7.67361C13.2273 7.67963 13.1038 7.68132 12.9804 7.67925C12.8135 7.67646 12.8135 7.67646 12.6433 7.67361C12.6433 7.64382 12.6433 7.61403 12.6433 7.58333C13.2637 7.43365 13.8519 7.37063 14.489 7.37457Z" fill="currentColor"/>
<path d="M20.689 6.31944C22.3521 6.34923 24.0152 6.37903 25.7287 6.40972C25.7724 6.63316 25.7724 6.63316 25.8171 6.86111C25.7676 6.83185 25.7181 6.8026 25.6672 6.77245C25.4384 6.66929 25.2817 6.65683 25.0326 6.65463C24.9473 6.65342 24.862 6.65221 24.7742 6.65096C24.6826 6.65049 24.5911 6.65001 24.4967 6.64952C24.4021 6.6482 24.3075 6.64688 24.21 6.64552C23.9076 6.64132 23.6052 6.63824 23.3028 6.63541C22.905 6.6317 22.5073 6.62685 22.1095 6.62131C22.0182 6.62083 21.9268 6.62036 21.8326 6.61987C21.7471 6.61865 21.6615 6.61744 21.5734 6.6162C21.4985 6.61554 21.4235 6.61488 21.3464 6.6142C21.1029 6.58714 20.9116 6.51174 20.689 6.40972C20.689 6.37993 20.689 6.35014 20.689 6.31944Z" fill="currentColor"/>
<path d="M28.5579 22.4792C28.681 22.8561 28.5675 23.0445 28.4208 23.4013C28.2025 23.8297 27.9167 24.2113 27.5854 24.5556C27.527 24.5556 27.4687 24.5556 27.4085 24.5556C27.4085 24.496 27.4085 24.4364 27.4085 24.375C27.3502 24.375 27.2918 24.375 27.2317 24.375C27.2317 24.2558 27.2317 24.1367 27.2317 24.0139C27.3028 23.9953 27.3739 23.9767 27.4472 23.9575C27.522 23.9165 27.5967 23.8755 27.6738 23.8333C27.7532 23.5577 27.7532 23.5577 27.7622 23.2917C28.0685 23.247 28.0685 23.247 28.3811 23.2014C28.3756 23.0981 28.3756 23.0981 28.37 22.9926C28.3811 22.75 28.3811 22.75 28.5579 22.4792Z" fill="currentColor"/>
<path d="M0.618905 5.77778C0.728384 6.11314 0.681314 6.33644 0.618905 6.68056C0.589728 6.71035 0.560551 6.74014 0.53049 6.77083C0.519529 6.96463 0.514752 7.1588 0.512337 7.3529C0.511461 7.41367 0.510586 7.47444 0.509684 7.53705C0.506882 7.73879 0.504697 7.94053 0.502515 8.14228C0.500697 8.28181 0.498841 8.42134 0.496947 8.56087C0.492059 8.92879 0.487693 9.29671 0.483433 9.66464C0.478998 10.0398 0.474072 10.415 0.469187 10.7901C0.459667 11.5268 0.4507 12.2634 0.442075 13C0.412899 13 0.383722 13 0.353661 13C0.3475 12.165 0.342794 11.33 0.339918 10.4949C0.338537 10.1071 0.336665 9.71937 0.333651 9.33158C0.330757 8.95696 0.32918 8.58234 0.328495 8.20771C0.328007 8.06518 0.327054 7.92265 0.325617 7.78013C0.312299 6.40464 0.312299 6.40464 0.618905 5.77778Z" fill="currentColor"/>
<path d="M7.60366 2.79861C7.63284 2.79861 7.66201 2.79861 7.69207 2.79861C7.67716 3.18686 7.64807 3.37971 7.39121 3.67377C7.01255 3.9741 6.6134 3.94772 6.15104 3.94577C6.06348 3.94714 5.97592 3.9485 5.8857 3.94991C5.60734 3.95378 5.32907 3.95458 5.05069 3.95529C4.86142 3.95738 4.67216 3.95967 4.4829 3.96217C4.0201 3.96784 3.55734 3.971 3.09451 3.97222C3.09451 4.03181 3.09451 4.09139 3.09451 4.15278C2.83192 4.10809 2.83192 4.10809 2.56403 4.0625C2.90381 3.83121 3.15573 3.78083 3.55835 3.77886C3.63152 3.77823 3.7047 3.77759 3.78009 3.77694C3.85839 3.77656 3.93668 3.77618 4.01734 3.7758C4.18381 3.7737 4.35028 3.77153 4.51675 3.76927C4.77869 3.7661 5.04059 3.76345 5.30255 3.76224C5.55572 3.76085 5.80879 3.75722 6.06193 3.75323C6.17937 3.75349 6.17937 3.75349 6.29918 3.75375C6.73762 3.74824 6.73762 3.74824 7.11324 3.53593C7.28241 3.29391 7.44341 3.04687 7.60366 2.79861Z" fill="currentColor"/>
<path d="M12.0244 7.85417C12.0827 7.88396 12.1411 7.91375 12.2012 7.94445C11.6044 8.30556 11.6044 8.30556 11.4055 8.30556C11.3818 8.35769 11.3581 8.40983 11.3337 8.46354C11.1237 8.86979 11.1237 8.86979 10.9634 9.02778C10.6374 9.05035 10.6374 9.05035 10.3445 9.02778C10.8335 8.49822 11.3474 8.09813 12.0244 7.85417Z" fill="currentColor"/>
<path d="M14.5 7.38021C14.6221 7.37916 14.6221 7.37916 14.7466 7.37809C15.3021 7.37969 15.8165 7.45203 16.3567 7.58333C16.3567 7.61313 16.3567 7.64292 16.3567 7.67361C16.226 7.69114 16.0952 7.70793 15.9644 7.72439C15.8915 7.73382 15.8187 7.74325 15.7437 7.75296C15.6532 7.75837 15.6532 7.75837 15.561 7.76389C15.5172 7.7192 15.5172 7.7192 15.4726 7.67361C14.8144 7.53295 13.9903 7.4559 13.3506 7.67361C13.2273 7.67963 13.1038 7.68132 12.9804 7.67925C12.8135 7.67646 12.8135 7.67646 12.6433 7.67361C12.6433 7.64382 12.6433 7.61403 12.6433 7.58333C13.2687 7.43131 13.8581 7.3747 14.5 7.38021Z" fill="currentColor"/>
<path d="M15.2073 19.7708C15.5283 19.7708 15.8492 19.7708 16.1799 19.7708C15.7764 20.1828 15.0147 20.144 14.4724 20.1489C14.1202 20.1428 13.7841 20.12 13.439 20.0417C13.439 20.0119 13.439 19.9821 13.439 19.9514C13.7006 19.9339 13.9621 19.917 14.2237 19.9006C14.2981 19.8955 14.3726 19.8905 14.4492 19.8853C14.5205 19.8809 14.5917 19.8765 14.6651 19.872C14.7637 19.8657 14.7637 19.8657 14.8643 19.8592C15.0305 19.8611 15.0305 19.8611 15.2073 19.9514C15.2073 19.8918 15.2073 19.8322 15.2073 19.7708Z" fill="currentColor"/>
<path d="M9.01829 0.8125C9.21722 0.835069 9.21722 0.835069 9.37195 0.902778C9.37195 0.962361 9.37195 1.02194 9.37195 1.08333C9.31177 1.09823 9.25159 1.11312 9.18959 1.12847C8.66411 1.40246 8.33445 1.92546 8.04573 2.4375C7.98737 2.46729 7.92902 2.49708 7.8689 2.52778C7.98899 2.18843 8.14015 1.91358 8.34413 1.61936C8.39587 1.54383 8.44761 1.4683 8.50092 1.39049C8.66158 1.17766 8.82022 0.989564 9.01829 0.8125Z" fill="currentColor"/>
<path d="M17.5945 12.0069C17.682 12.0516 17.682 12.0516 17.7713 12.0972C17.7713 12.1866 17.7713 12.276 17.7713 12.3681C17.888 12.3978 18.0048 12.4276 18.125 12.4583C18.0958 13.1137 18.0666 13.7692 18.0366 14.4444C18.0074 14.4444 17.9782 14.4444 17.9482 14.4444C17.9449 14.3561 17.9416 14.2678 17.9382 14.1768C17.9082 13.5677 17.8763 13.0062 17.6494 12.4344C17.5945 12.2778 17.5945 12.2778 17.5945 12.0069Z" fill="currentColor"/>
<path d="M18.125 18.2361C18.3584 18.2361 18.5918 18.2361 18.8323 18.2361C18.5671 18.5069 18.3018 18.7778 18.0366 19.0486C17.9782 19.0188 17.9199 18.989 17.8598 18.9583C17.8598 18.8094 17.8598 18.6604 17.8598 18.5069C17.9181 18.5069 17.9765 18.5069 18.0366 18.5069C18.0658 18.4176 18.0949 18.3282 18.125 18.2361Z" fill="currentColor"/>
<path d="M19.3628 4.60417C19.5379 4.69354 19.5379 4.69354 19.7165 4.78472C19.7165 4.8741 19.7165 4.96347 19.7165 5.05556C19.7748 5.05556 19.8332 5.05556 19.8933 5.05556C19.8933 5.14493 19.8933 5.23431 19.8933 5.32639C20.01 5.38597 20.1267 5.44556 20.247 5.50695C20.247 5.62611 20.247 5.74528 20.247 5.86806C20.3053 5.86806 20.3637 5.86806 20.4238 5.86806C20.4821 5.98722 20.5405 6.10639 20.6006 6.22917C20.2501 6.09196 20.0969 5.87695 19.8822 5.56901C19.8218 5.48371 19.7614 5.39841 19.6992 5.31052C19.554 5.07845 19.4524 4.86299 19.3628 4.60417Z" fill="currentColor"/>
<path d="M8.75305 16.1597C8.81141 16.1597 8.86976 16.1597 8.92988 16.1597C8.98823 16.3683 9.04659 16.5768 9.10671 16.7917C9.16506 16.7917 9.22342 16.7917 9.28354 16.7917C9.28354 16.8512 9.28354 16.9108 9.28354 16.9722C9.34007 16.9946 9.3966 17.0169 9.45484 17.0399C9.6372 17.1528 9.6372 17.1528 9.70904 17.3277C9.72561 17.5139 9.72561 17.5139 9.6372 17.7847C8.75305 16.5332 8.75305 16.5332 8.75305 16.1597Z" fill="currentColor"/>
<path d="M9.90245 9.38889C9.99086 9.65972 9.99086 9.65972 9.92213 9.84416C9.88828 9.90805 9.85443 9.97194 9.81956 10.0378C9.78594 10.1023 9.75231 10.1669 9.71767 10.2335C9.69112 10.2825 9.66456 10.3315 9.6372 10.3819C9.60803 10.3224 9.57885 10.2628 9.54879 10.2014C9.49043 10.2014 9.43208 10.2014 9.37196 10.2014C9.31361 10.3206 9.25525 10.4397 9.19513 10.5625C9.19513 10.221 9.29174 10.1356 9.49905 9.87413C9.55547 9.80221 9.61189 9.73029 9.67001 9.6562C9.81403 9.47917 9.81403 9.47917 9.90245 9.38889Z" fill="currentColor"/>
<path d="M18.6555 9.02778C19.139 9.43332 19.139 9.43332 19.2744 9.56945C19.2744 9.62903 19.2744 9.68861 19.2744 9.75C19.0091 9.93056 19.0091 9.93056 18.7439 9.93056C18.7147 9.63264 18.6855 9.33472 18.6555 9.02778Z" fill="currentColor"/>
<path d="M14.8537 10.1111C15.3568 10.1597 15.857 10.214 16.3567 10.2917C16.3859 10.4406 16.4151 10.5896 16.4451 10.7431C16.3846 10.7172 16.3241 10.6914 16.2617 10.6648C15.978 10.5526 15.6919 10.4608 15.4007 10.3707C15.298 10.3388 15.1953 10.3069 15.0895 10.274C15.0117 10.2501 14.9339 10.2261 14.8537 10.2014C14.8537 10.1716 14.8537 10.1418 14.8537 10.1111Z" fill="currentColor"/>
<path d="M16.4451 10.7431C16.591 10.7431 16.7369 10.7431 16.8872 10.7431C16.9164 10.8324 16.9456 10.9218 16.9756 11.0139C17.034 11.0437 17.0923 11.0735 17.1524 11.1042C17.1524 11.1638 17.1524 11.2233 17.1524 11.2847C17.2108 11.2847 17.2692 11.2847 17.3293 11.2847C17.3293 11.3443 17.3293 11.4039 17.3293 11.4653C17.4168 11.4951 17.5043 11.5249 17.5945 11.5556C17.5362 11.6747 17.4778 11.7939 17.4177 11.9167C17.3845 11.8698 17.3514 11.8229 17.3172 11.7746C17.048 11.4001 16.7764 11.0614 16.4451 10.7431Z" fill="currentColor"/>
<path d="M20.9543 2.16667C21.2421 2.43955 21.451 2.73155 21.6616 3.06945C21.6324 3.12903 21.6032 3.18861 21.5732 3.25C21.5148 3.22021 21.4565 3.19042 21.3963 3.15972C21.3963 3.07035 21.3963 2.98097 21.3963 2.88889C21.3088 2.88889 21.2213 2.88889 21.1311 2.88889C21.1311 2.82931 21.1311 2.76972 21.1311 2.70833C21.0436 2.67854 20.956 2.64875 20.8659 2.61806C20.895 2.4691 20.9242 2.32014 20.9543 2.16667Z" fill="currentColor"/>
<path d="M1.8567 24.8264C2.13853 24.7925 2.13853 24.7925 2.47561 24.8264C2.66485 24.99 2.77532 25.1566 2.91768 25.3681C2.52323 25.2654 2.19229 25.1555 1.8567 24.9167C1.8567 24.8869 1.8567 24.8571 1.8567 24.8264Z" fill="currentColor"/>
<path d="M0.795731 23.6528C1.01677 23.7769 1.01677 23.7769 1.2378 23.9236C1.2378 23.9832 1.2378 24.0428 1.2378 24.1042C1.32533 24.134 1.41286 24.1638 1.50305 24.1944C1.53222 24.2838 1.5614 24.3732 1.59146 24.4653C1.64982 24.4951 1.70817 24.5249 1.76829 24.5556C1.76829 24.6151 1.76829 24.6747 1.76829 24.7361C1.46881 24.6062 1.29444 24.4453 1.08308 24.1944C1.02883 24.1311 0.974577 24.0678 0.918682 24.0026C0.795731 23.8333 0.795731 23.8333 0.795731 23.6528Z" fill="currentColor"/>
<path d="M27.7622 5.05556C28.1645 5.4093 28.4031 5.79685 28.5579 6.31945C28.5287 6.37903 28.4996 6.43861 28.4695 6.5C28.2043 6.08247 28.2043 6.08247 28.2043 5.77778C28.1167 5.77778 28.0292 5.77778 27.939 5.77778C27.8807 5.53945 27.8223 5.30111 27.7622 5.05556Z" fill="currentColor"/>
<path d="M0.353661 22.2083C0.556691 22.5193 0.578249 22.7444 0.618905 23.1111C0.706435 23.1409 0.793966 23.1707 0.884149 23.2014C0.854972 23.3503 0.825795 23.4993 0.795734 23.6528C0.42941 23.2107 0.326945 22.7812 0.353661 22.2083Z" fill="currentColor"/>
<path d="M7.60366 2.79861C7.63284 2.79861 7.66202 2.79861 7.69208 2.79861C7.63807 3.38321 7.63807 3.38321 7.47657 3.60547C7.33842 3.70139 7.33842 3.70139 7.16159 3.70139C7.21594 3.34069 7.3963 3.08975 7.60366 2.79861Z" fill="currentColor"/>
<path d="M2.3872 4.0625C2.3872 4.15187 2.3872 4.24125 2.3872 4.33333C2.28052 4.36964 2.28052 4.36964 2.17169 4.40668C2.09692 4.44206 2.02215 4.47744 1.94512 4.51389C1.91595 4.60326 1.88677 4.69264 1.85671 4.78472C1.71082 4.81451 1.56494 4.84431 1.41463 4.875C1.70809 4.47842 1.92734 4.25905 2.3872 4.0625Z" fill="currentColor"/>
<path d="M19.8933 16.5208C19.9516 16.5208 20.01 16.5208 20.0701 16.5208C19.9419 16.8918 19.7597 17.1918 19.5396 17.5139C19.4402 17.1753 19.4402 17.1753 19.5396 16.9722C19.598 16.9722 19.6563 16.9722 19.7165 16.9722C19.7165 16.9126 19.7165 16.8531 19.7165 16.7917C19.7748 16.7917 19.8332 16.7917 19.8933 16.7917C19.8933 16.7023 19.8933 16.6129 19.8933 16.5208Z" fill="currentColor"/>
<path d="M12.7317 19.5C12.7317 19.5894 12.7317 19.6788 12.7317 19.7708C12.4015 19.7259 12.2178 19.6918 11.936 19.5C12.23 19.3999 12.433 19.4238 12.7317 19.5Z" fill="currentColor"/>
<path d="M20.247 11.4653C20.4912 11.7146 20.4749 11.9354 20.5122 12.2778C20.2934 12.1884 20.2934 12.1884 20.0701 12.0972C20.1285 11.8887 20.1868 11.6801 20.247 11.4653Z" fill="currentColor"/>
<path d="M11.5823 11.5556C11.6115 11.6151 11.6407 11.6747 11.6707 11.7361C11.5827 11.9512 11.5827 11.9512 11.4552 12.1988C11.4134 12.2809 11.3716 12.3631 11.3285 12.4478C11.2955 12.5108 11.2626 12.5739 11.2287 12.6389C11.1995 12.6389 11.1703 12.6389 11.1402 12.6389C11.1838 11.9722 11.1838 11.9722 11.411 11.691C11.4675 11.6463 11.5241 11.6016 11.5823 11.5556Z" fill="currentColor"/>
<path d="M11.7591 10.8333C11.7701 10.8911 11.781 10.9488 11.7923 11.0082C11.8197 11.1004 11.8197 11.1004 11.8476 11.1944C11.9059 11.2242 11.9643 11.254 12.0244 11.2847C11.9369 11.3443 11.8493 11.4039 11.7591 11.4653C11.6424 11.4057 11.5257 11.3461 11.4055 11.2847C11.4347 11.2251 11.4638 11.1656 11.4939 11.1042C11.5523 11.1042 11.6106 11.1042 11.6707 11.1042C11.6999 11.0148 11.7291 10.9254 11.7591 10.8333Z" fill="currentColor"/>
<path d="M19.3628 9.84028C19.5932 10.0674 19.7955 10.2963 19.9817 10.5625C19.9525 10.6221 19.9234 10.6817 19.8933 10.7431C19.7165 10.6189 19.7165 10.6189 19.5396 10.4722C19.5396 10.4126 19.5396 10.3531 19.5396 10.2917C19.4813 10.2917 19.4229 10.2917 19.3628 10.2917C19.3628 10.1427 19.3628 9.99375 19.3628 9.84028Z" fill="currentColor"/>
<path d="M16.0915 16.9722C16.0039 17.1063 16.0039 17.1063 15.9146 17.2431C15.7233 17.2695 15.7233 17.2695 15.5057 17.26C15.4335 17.2575 15.3612 17.2551 15.2867 17.2526C15.2037 17.2479 15.2037 17.2479 15.1189 17.2431C15.7631 16.8046 15.7631 16.8046 16.0915 16.9722Z" fill="currentColor"/>
<path d="M17.3293 15.7083C17.3845 15.872 17.3845 15.872 17.4177 16.0694C17.3302 16.2035 17.3302 16.2035 17.2409 16.3403C17.1533 16.3403 17.0658 16.3403 16.9756 16.3403C17.0706 16.0771 17.1328 15.9089 17.3293 15.7083Z" fill="currentColor"/>
<path d="M13.0854 7.67361C12.9978 7.80768 12.9978 7.80768 12.9085 7.94445C12.6751 7.91465 12.4417 7.88486 12.2012 7.85417C12.5234 7.63484 12.7063 7.65901 13.0854 7.67361Z" fill="currentColor"/>
<path d="M16.7104 16.3403C16.7395 16.4594 16.7687 16.5786 16.7988 16.7014C16.6441 16.7973 16.6441 16.7973 16.4451 16.8819C16.3284 16.8522 16.2117 16.8224 16.0915 16.7917C16.2957 16.6427 16.4999 16.4938 16.7104 16.3403Z" fill="currentColor"/>
<path d="M18.3018 0.270835C18.8371 0.253202 18.8371 0.253202 19.0091 0.270835C19.0675 0.330418 19.1258 0.390001 19.186 0.45139C19.0109 0.481182 18.8358 0.510973 18.6555 0.541668C18.6555 0.482085 18.6555 0.422501 18.6555 0.361112C18.5096 0.390904 18.3637 0.420696 18.2134 0.45139C18.2426 0.391807 18.2718 0.332223 18.3018 0.270835Z" fill="currentColor"/>
<path d="M8.57622 15.4375C8.69292 15.4673 8.80963 15.4971 8.92988 15.5278C8.87917 15.7866 8.85371 15.8764 8.66463 16.0694C8.63546 15.8609 8.60628 15.6524 8.57622 15.4375Z" fill="currentColor"/>
<path d="M9.01829 0.8125C9.20065 0.851997 9.20065 0.851997 9.37195 0.902778C9.37195 0.962361 9.37195 1.02194 9.37195 1.08333C9.19689 1.14292 9.02183 1.2025 8.84146 1.26389C8.91882 0.914062 8.91882 0.914062 9.01829 0.8125Z" fill="currentColor"/>
<path d="M10.3445 0.36111C10.034 0.578512 9.83821 0.665012 9.46037 0.631944C9.54879 0.451388 9.54879 0.451388 9.75325 0.344183C10.0015 0.26756 10.106 0.270897 10.3445 0.36111Z" fill="currentColor"/>
</g>
<defs>
<clipPath id="clip0_296_184">
<rect width="29" height="26" fill="currentColor"/>
</clipPath>
</defs>
</svg>
