<svg version="1.1" id="Layer_1" xmlns="http://www.w3.org/2000/svg" xmlns:xlink="http://www.w3.org/1999/xlink" x="0px" y="0px"
	 width="100%" viewBox="0 0 512 496" enable-background="new 0 0 512 496" xml:space="preserve">
<path fill="currentColor" opacity="1.000000" stroke="none" 
	d="
M513.000000,185.000000 
	C513.000000,192.687576 513.000000,200.375168 512.656250,208.449036 
	C488.394928,232.940002 464.489990,257.057220 440.554443,281.144043 
	C428.815796,292.956848 416.990387,304.683655 405.297821,316.541656 
	C404.142334,317.713531 402.979828,319.529907 402.974884,321.050964 
	C402.964111,324.346802 403.622498,327.657654 404.145416,330.940369 
	C407.852417,354.212708 411.615997,377.476044 415.318756,400.749054 
	C418.762451,422.393890 422.287506,444.027191 425.500946,465.706451 
	C426.781830,474.347717 426.006287,482.642883 418.557037,488.890747 
	C410.324493,495.795654 401.415955,496.434021 392.101776,491.736603 
	C353.608795,472.323456 315.184448,452.774353 276.703735,433.336914 
	C270.645996,430.277008 264.455444,425.358612 258.275970,425.280426 
	C252.528275,425.207703 246.714066,430.450409 240.927887,433.350525 
	C216.400772,445.643677 191.878632,457.946747 167.343857,470.224579 
	C151.753036,478.026611 136.414383,486.411530 120.458481,493.380798 
	C107.018005,499.251343 90.658424,487.691986 91.316490,473.101898 
	C91.785843,462.695862 93.760437,452.339630 95.350891,442.005463 
	C101.392159,402.751343 107.483788,363.504486 113.771660,324.289429 
	C114.375648,320.522614 113.562469,318.176849 110.934776,315.549744 
	C77.489990,282.112305 44.066788,248.651764 10.911736,214.928070 
	C6.800219,210.746033 4.265414,205.013870 0.999999,200.000000 
	C1.000000,197.299988 1.000000,194.599976 1.323873,191.272736 
	C3.640460,182.972809 8.661821,177.805634 16.019953,175.710617 
	C22.668930,173.817551 29.675390,173.164474 36.534874,172.029022 
	C66.497276,167.069275 96.459167,162.106018 126.430519,157.200714 
	C139.370865,155.082809 152.355530,153.225464 165.264557,150.936661 
	C167.381744,150.561295 170.113144,149.030472 171.040421,147.244400 
	C190.321899,110.105537 209.363449,72.842201 228.504700,35.630367 
	C232.663879,27.544628 236.052368,18.816647 241.511444,11.700589 
	C250.644196,-0.204240 269.716522,-0.731613 279.855011,17.071659 
	C285.112244,26.303345 289.697723,35.921169 294.490448,45.413143 
	C311.489624,79.080132 328.479736,112.751862 345.359192,146.478897 
	C346.703156,149.164307 348.352600,150.367249 351.296692,150.826111 
	C370.492584,153.818146 389.658478,157.002365 408.836487,160.109589 
	C434.743469,164.307068 460.656982,168.464615 486.558441,172.695831 
	C496.502106,174.320236 507.011810,174.830627 513.000000,185.000000 
z"/>
</svg>