<svg version="1.1" id="Layer_1" xmlns="http://www.w3.org/2000/svg" xmlns:xlink="http://www.w3.org/1999/xlink" x="0px" y="0px"
	 width="100%" viewBox="0 0 495 504" xml:space="preserve">
<path fill="currentColor" opacity="1.000000" stroke="none" 
	d="
M0.999998,261.000000 
	C1.000000,252.312439 1.000000,243.624863 1.400217,234.401337 
	C2.547723,228.895859 3.431349,223.942383 4.018337,218.953995 
	C6.367856,198.987122 11.045242,179.543411 18.528736,160.937820 
	C23.668980,148.158066 29.373938,135.470139 36.249729,123.563026 
	C42.709637,112.376137 50.327251,101.658920 58.737148,91.851219 
	C67.666496,81.437721 77.616402,71.738945 88.057549,62.825550 
	C99.373138,53.165661 111.193718,43.828682 123.859138,36.095184 
	C136.195999,28.562309 149.610931,22.566378 163.060806,17.160215 
	C173.092133,13.128145 183.809692,10.504416 194.442642,8.338584 
	C210.137924,5.141617 225.948715,2.192065 242.138931,3.028614 
	C244.963531,3.174562 247.822891,3.236314 250.625290,2.944290 
	C251.804916,2.821366 252.878311,1.678964 254.000000,1.000000 
	C255.388901,1.000000 256.777802,1.000000 258.653961,1.400684 
	C264.438599,2.562839 269.752655,3.224595 275.029968,4.106148 
	C286.697693,6.055204 298.493530,7.514882 309.958405,10.315197 
	C319.489227,12.643121 328.805145,16.160831 337.886475,19.943327 
	C350.138641,25.046530 362.435974,30.254644 374.028809,36.658073 
	C382.854736,41.533169 390.956238,47.925926 398.762970,54.388855 
	C409.023621,62.883297 419.473328,71.387718 428.389160,81.206802 
	C439.078430,92.978989 449.257294,105.487885 457.815674,118.856651 
	C470.167908,138.151688 479.567902,159.120560 485.599304,181.337463 
	C489.887878,197.134811 494.056488,213.022385 494.145752,229.610779 
	C494.151855,230.743805 495.354065,231.870407 496.000000,233.000000 
	C496.000000,243.687561 496.000000,254.375122 495.601379,265.602661 
	C494.821198,267.497620 494.288391,268.829987 494.081848,270.211090 
	C492.228424,282.604187 491.341980,295.224365 488.427063,307.358795 
	C482.641357,331.444336 473.029938,354.091858 460.390594,375.495697 
	C449.346771,394.197479 436.183655,411.220825 420.647797,426.255890 
	C407.401062,439.075592 393.002411,450.533783 377.048737,460.082886 
	C362.216553,468.960754 346.928131,476.820068 330.564911,482.135284 
	C316.935455,486.562561 302.896576,489.881927 288.860809,492.848846 
	C280.351074,494.647675 271.502228,494.842255 262.457642,495.578979 
	C252.006805,495.276917 241.904099,495.153442 231.464783,495.184662 
	C218.754410,493.596008 206.266327,492.415894 194.042297,489.934723 
	C183.887619,487.873627 173.740463,485.037598 164.135544,481.184753 
	C150.895096,475.873627 137.788986,469.963531 125.337280,463.031189 
	C114.791046,457.159698 104.740219,450.099487 95.405373,442.427399 
	C83.981384,433.038300 72.481445,423.358154 62.943600,412.160553 
	C52.445171,399.835144 44.104900,385.666077 34.885223,372.258362 
	C24.695148,357.439484 18.337996,340.670532 13.267825,323.768280 
	C7.549543,304.705414 2.758842,285.150757 2.919815,264.883301 
	C2.930055,263.594025 1.669412,262.294678 0.999998,261.000000 
M238.750732,449.557617 
	C245.487457,449.424713 252.224182,449.291809 259.598816,449.010254 
	C260.623840,448.763977 261.648834,448.517700 263.565369,448.196442 
	C265.056061,448.170044 266.546783,448.143646 268.386292,448.416443 
	C268.922852,448.282715 269.459442,448.148956 270.857483,448.051910 
	C271.856842,448.033661 272.900604,448.198730 273.848755,447.969055 
	C284.032990,445.501587 294.332336,443.398346 304.339752,440.342468 
	C314.914520,437.113342 325.906464,434.220581 335.461334,428.919250 
	C350.282043,420.696289 365.650970,412.993073 377.546265,400.178925 
	C385.195007,391.939423 393.862732,384.654938 401.712402,376.590668 
	C412.397949,365.612976 419.678650,352.219879 426.920471,338.913849 
	C430.059967,333.145294 432.060455,326.759796 434.619171,320.671692 
	C442.385010,302.194031 446.507416,282.740753 447.824860,262.933411 
	C449.506256,237.654785 446.344147,212.870819 438.383728,188.520203 
	C433.019928,172.112579 425.706726,156.910248 416.548706,142.506561 
	C411.462799,134.507538 405.948456,126.684525 399.809387,119.478935 
	C393.821808,112.451111 387.049347,106.023003 380.145630,99.865059 
	C373.840271,94.240845 367.278595,88.722794 360.143097,84.254791 
	C350.482361,78.205544 340.232971,73.075241 330.114471,67.783348 
	C316.698029,60.766644 302.436127,56.215115 287.469360,53.892879 
	C278.980011,52.575672 270.490387,51.260223 261.431763,49.320122 
	C256.983521,49.219700 252.531601,48.960926 248.088043,49.063805 
	C243.725266,49.164810 239.370987,49.633343 234.190933,50.098888 
	C232.559158,50.374702 230.936462,50.807064 229.294220,50.902210 
	C212.115860,51.897415 195.547104,55.933826 179.744125,62.398167 
	C167.249725,67.509109 154.981232,73.434334 143.284958,80.166397 
	C129.508209,88.095940 117.138641,98.225700 106.239891,109.822052 
	C99.307655,117.198021 93.514915,125.633232 87.015442,133.430267 
	C76.243126,146.353195 68.839676,161.146805 62.896217,176.708603 
	C56.309155,193.955551 52.312710,211.815918 50.047726,230.179672 
	C47.970032,247.024933 48.985332,263.754395 51.537624,280.264435 
	C53.489162,292.888397 57.345718,305.310791 61.358990,317.492035 
	C64.258850,326.293854 68.234779,334.873138 72.770393,342.969269 
	C77.979401,352.267365 83.908409,361.243591 90.312263,369.768005 
	C96.797829,378.401154 103.431755,387.237030 111.474007,394.308594 
	C121.987961,403.553589 133.624680,411.651794 145.391403,419.300293 
	C154.606018,425.289856 164.387558,430.754822 174.564224,434.841797 
	C193.669601,442.514435 213.492584,447.892426 234.850021,448.664551 
	C235.913498,448.827850 236.976959,448.991180 238.750732,449.557617 
z"/>
<path fill="currentColor" opacity="1.000000" stroke="none" 
	d="
M262.457642,495.578979 
	C252.650421,495.748627 242.495102,495.739716 232.070587,495.380371 
	C241.904099,495.153442 252.006805,495.276917 262.457642,495.578979 
z"/>
<path fill="currentColor" opacity="1.000000" stroke="none" 
	d="
M234.591827,448.467590 
	C243.487900,448.204163 252.642197,448.137695 262.235168,448.171326 
	C261.648834,448.517700 260.623840,448.763977 258.816711,449.028564 
	C251.369904,449.082733 244.705170,449.118622 238.040436,449.154480 
	C236.976959,448.991180 235.913498,448.827850 234.591827,448.467590 
z"/>
<path fill="currentColor" opacity="1.000000" stroke="none" 
	d="
M261.716309,49.632057 
	C253.317795,49.962376 244.634720,49.980766 235.482300,49.969872 
	C239.370987,49.633343 243.725266,49.164810 248.088043,49.063805 
	C252.531601,48.960926 256.983521,49.219700 261.716309,49.632057 
z"/>
<path fill="currentColor" opacity="1.000000" stroke="none" 
	d="
M238.395584,449.356049 
	C244.705170,449.118622 251.369904,449.082733 258.497772,449.102844 
	C252.224182,449.291809 245.487457,449.424713 238.395584,449.356049 
z"/>
<path fill="currentColor" opacity="1.000000" stroke="none" 
	d="
M268.211884,448.266846 
	C268.585480,447.951172 269.133514,447.785126 269.838776,447.817139 
	C269.459442,448.148956 268.922852,448.282715 268.211884,448.266846 
z"/>
<path fill="currentColor" opacity="1.000000" stroke="none" 
	d="
M367.421204,138.814453 
	C371.677521,146.975204 371.321930,154.636368 367.968506,162.936218 
	C358.934692,185.295273 350.609406,207.939636 341.889771,230.426880 
	C335.144806,247.821686 328.220490,265.146912 321.394806,282.510468 
	C319.589203,287.103638 317.479126,291.619934 316.160248,296.353027 
	C313.048676,307.519684 304.981384,313.641144 294.952209,317.641418 
	C275.440918,325.423767 255.825470,332.945374 236.244736,340.553314 
	C215.441177,348.636383 194.635101,356.713135 173.812973,364.748169 
	C169.357300,366.467590 164.813614,367.957428 160.335144,369.619476 
	C147.534500,374.370026 136.449310,370.646423 129.889435,360.192505 
	C125.544113,353.267761 125.539757,345.324615 128.623840,337.505707 
	C134.479202,322.660950 140.170837,307.751617 145.956833,292.879395 
	C152.380890,276.367126 158.865417,259.878357 165.266129,243.357086 
	C171.266846,227.868256 176.639664,212.100937 183.459335,196.984253 
	C185.758865,191.887054 190.952026,187.038879 196.032608,184.466171 
	C207.664551,178.575958 219.948029,173.914459 232.141312,169.205566 
	C246.899582,163.506149 261.908295,158.456268 276.677734,152.784439 
	C290.759186,147.376816 304.610535,141.370834 318.683258,135.939316 
	C326.771515,132.817566 335.036377,130.108597 343.338318,127.599663 
	C349.678436,125.683617 361.120880,130.319046 365.010712,135.847763 
	C365.672699,136.788712 366.421234,137.668808 367.421204,138.814453 
M231.806061,224.216873 
	C226.759293,227.351608 223.015472,231.673615 220.965088,237.207458 
	C217.066437,247.729721 217.709686,257.918091 224.326141,267.262848 
	C228.444626,273.079559 234.152008,277.651489 240.992386,278.719635 
	C249.968903,280.121338 258.748352,278.872833 266.848053,273.185883 
	C281.005249,263.245850 282.697449,238.778702 269.658813,227.349625 
	C259.609955,218.541260 244.189377,216.210312 231.806061,224.216873 
z"/>
</svg>