<svg width="70" height="54" viewBox="0 0 70 54" xmlns="http://www.w3.org/2000/svg">
<path d="M68.5417 19.2857H59.682L44.0278 1.0194C42.9847 -0.197886 41.1441 -0.345904 39.9165 0.688774C38.6892 1.72345 38.54 3.54921 39.5833 4.76649L52.0263 19.2857H17.9738L30.4168 4.76637C31.46 3.54908 31.3108 1.72333 30.0835 0.688654C28.8562 -0.346024 27.0154 -0.197886 25.9722 1.01928L10.3178 19.2857H1.45833C0.652969 19.2857 0 19.9334 0 20.7322V23.625C0 24.4238 0.652969 25.0714 1.45833 25.0714H3.72689L7.07911 49.0102C7.47955 51.8706 9.94535 54 12.8569 54H57.1431C60.0546 54 62.5205 51.8706 62.921 49.0102L66.2731 25.0714H68.5417C69.347 25.0714 70 24.4238 70 23.625V20.7322C70 19.9334 69.347 19.2857 68.5417 19.2857ZM57.1431 48.2143H12.8569L9.61613 25.0714H60.3838L57.1431 48.2143ZM37.9167 31.8214V41.4643C37.9167 43.062 36.6109 44.3572 35 44.3572C33.3891 44.3572 32.0833 43.062 32.0833 41.4643V31.8214C32.0833 30.2237 33.3891 28.9286 35 28.9286C36.6109 28.9286 37.9167 30.2237 37.9167 31.8214ZM51.5278 31.8214V41.4643C51.5278 43.062 50.222 44.3572 48.6111 44.3572C47.0003 44.3572 45.6944 43.062 45.6944 41.4643V31.8214C45.6944 30.2237 47.0003 28.9286 48.6111 28.9286C50.222 28.9286 51.5278 30.2237 51.5278 31.8214ZM24.3056 31.8214V41.4643C24.3056 43.062 22.9997 44.3572 21.3889 44.3572C19.778 44.3572 18.4722 43.062 18.4722 41.4643V31.8214C18.4722 30.2237 19.778 28.9286 21.3889 28.9286C22.9997 28.9286 24.3056 30.2237 24.3056 31.8214Z" fill="currentColor"/>
</svg>
