<svg width="203" height="180" viewBox="0 0 203 180" fill="currentColor">
<path d="M154.848 17.4297C171.688 30.7613 171.688 30.7613 173.434 39.0625C173.441 42.8691 173.238 44.6276 171.125 47.9375C168.485 50.5003 167.623 50.9491 163.938 51.25C160.58 51.0368 158.88 50.6731 155.875 49.5C146.422 46.1619 137.52 47.3691 128.59 51.5938C120.343 56.0719 115.971 62.8929 112.625 71.5625C111.389 78.3595 110.987 84.0493 115 90C118.487 93.9097 121.934 94.8881 127 95.25C130.695 94.942 133.923 93.8322 137.375 92.5625C147.027 89.0285 155.398 88.6031 165.031 92.4648C169.353 94.6997 173.247 97.4801 177.217 100.281C182.601 103.981 187.784 106.024 194.074 107.867C197.278 109.107 198.847 110.351 201 113C202.19 116.65 202.152 118.514 201 122.188C198.983 125.024 197.386 126.485 194.082 127.66C182.044 129.625 168.925 120.061 159.562 113.688C155.506 111.016 151.764 110.322 147 111C145.384 111.637 143.781 112.307 142.188 113C133.154 116.494 121.516 116.738 112.375 113.375C110.102 112.254 110.102 112.254 108 111C107.286 110.576 106.572 110.152 105.836 109.715C97.9238 104.396 93.6155 97.0039 91.4688 87.8164C89.2231 74.3239 92.8631 61.5157 100 50C107.047 40.5635 116.607 32.5686 128 29C129.32 29 130.64 29 132 29C132 28.34 132 27.68 132 27C113.171 21.3234 95.7323 20.7739 77.8828 30.2812C64.1586 38.4637 55.9899 50.1755 50.9258 65.1836C49.5776 70.7413 49.2703 76.3047 48.877 81.998C47.789 95.4355 42.9248 107.586 33 117C26.0293 122.803 17.9293 127.89 8.62501 128.062C4.98305 126.588 3.28463 125.225 1.00001 122C0.361934 118.887 0.199928 116.084 1.00001 113C3.78917 109.491 6.90244 107.899 10.9375 106.062C18.1228 102.579 23.9377 97.9415 26.6563 90.1094C27.8015 85.5621 28.1357 81.1126 28.375 76.4375C29.8118 54.5081 38.9145 36.598 54.6211 21.4766C82.8941 -3.1415 124.636 -4.60375 154.848 17.4297Z" fill="currentColor"/>
<path d="M54.3125 139.563C55.0503 139.573 55.7882 139.583 56.5483 139.594C67.6684 139.96 75.7604 144.032 84.6626 150.382C90.0133 154.193 95.7388 157.821 102.578 157.543C110.552 155.755 118.059 150.699 124.812 146.25C135.572 139.321 146.734 138.424 159.238 140.551C166.127 142.518 171.5 146.189 177.269 150.281C182.633 154 187.789 156.026 194.074 157.867C197.278 159.107 198.847 160.351 201 163C202.19 166.65 202.152 168.514 201 172.188C198.983 175.024 197.386 176.485 194.082 177.66C182.678 179.522 169.748 170.789 160.941 164.539C155.183 160.53 149.879 159.377 142.891 160.27C136.724 161.881 131.77 165.717 126.604 169.294C116.641 176.118 107.067 178.967 95 178C84.4026 176.009 75.8409 169.808 67 164C61.4666 160.373 56.2897 159.314 49.7031 160.367C44.2322 161.939 40.0861 164.895 35.5312 168.227C28.3044 173.29 18.6903 178.353 9.63281 177.875C6.58004 177.249 4.3801 176.343 2.0625 174.25C0.708459 171.383 0.129814 169.18 0 166C1.6568 162.25 3.61148 160.225 7 158C8.69141 157.445 10.4032 156.951 12.125 156.5C18.9142 154.376 24.5138 150.852 30.4165 146.973C38.045 142.045 45.1823 139.424 54.3125 139.563Z" fill="currentColor"/>
<path d="M80 148C86.93 151.96 86.93 151.96 94 156C91 158 91 158 88.625 157.562C87.7588 157.377 86.8925 157.191 86 157C83.275 157.377 83.275 157.377 81 158C80.34 157.01 79.68 156.02 79 155C79.99 154.01 80.98 153.02 82 152C81.34 151.67 80.68 151.34 80 151C80 150.01 80 149.02 80 148Z" fill="currentColor"/>
<path d="M93 65C93.8545 67.9272 94.0799 70.4081 93.957 73.4492C93.9251 74.7225 93.9251 74.7225 93.8926 76.0215C93.8398 77.7797 93.7749 79.5376 93.6973 81.2949C93.5821 86.9554 94.4375 90.9558 97.0339 96.0032C97.9966 97.993 98.5402 99.8441 99 102C93.1639 96.9118 91.4874 89.5356 90.6797 82.0195C90.5626 76.0888 91.4985 70.7244 93 65Z" fill="currentColor"/>
<path d="M135 49C134.336 49.3145 133.672 49.6291 132.988 49.9531C123.526 54.5394 119.109 58.8001 114 68C113 65 113 65 113.812 62.375C115 60 115 60 117 59C117.652 56.9754 117.652 56.9754 118 55C118.66 55 119.32 55 120 55C120 54.34 120 53.68 120 53C124.165 49.0015 129.468 47.3016 135 49Z" fill="currentColor"/>
<path d="M106.125 1.8125C106.865 1.81186 107.606 1.81121 108.369 1.81055C114.711 1.87084 120.796 2.66116 127 4C127 4.33 127 4.66 127 5C124.69 5.33 122.38 5.66 120 6C120 5.34 120 4.68 120 4C110.76 4 101.52 4 92 4C92 3.67 92 3.34 92 3C96.7232 2.0746 101.325 1.80816 106.125 1.8125Z" fill="currentColor"/>
<path d="M50 59C50.66 59 51.32 59 52 59C51.8687 59.5928 51.7374 60.1856 51.6021 60.7964C50.2396 67.2233 49.4354 73.5834 48.875 80.125C48.7454 81.5597 48.7454 81.5597 48.6133 83.0234C48.404 85.3486 48.1997 87.674 48 90C47.67 90 47.34 90 47 90C46.9707 86.6459 46.9531 83.2917 46.9375 79.9375C46.9291 78.9946 46.9207 78.0516 46.9121 77.0801C46.8655 63.7018 46.8655 63.7018 50 59Z" fill="currentColor"/>
<path d="M170 34C172.838 36.4239 172.985 36.866 173.438 40.875C173.293 44.9946 171.989 47.0991 169 50C165.987 51.5066 163.317 51.1777 160 51C159.34 50.34 158.68 49.68 158 49C158.99 48.67 159.98 48.34 161 48C161 48.66 161 49.32 161 50C165.08 48.6984 165.08 48.6984 169 47C169.47 43.9542 169.47 43.9542 169.625 40.4375C169.7 39.24 169.775 38.0424 169.852 36.8086C169.901 35.8818 169.95 34.9549 170 34Z" fill="currentColor"/>
<path d="M113 16C115 18 115 18 116 22C110.72 22 105.44 22 100 22C100 21.34 100 20.68 100 20C100.603 19.9626 101.207 19.9252 101.828 19.8867C107.994 19.4375 107.994 19.4375 113 16Z" fill="currentColor"/>
<path d="M120 149C120.66 149.33 121.32 149.66 122 150C121.34 151.65 120.68 153.3 120 155C119.67 154.34 119.34 153.68 119 153C118.492 153.361 117.984 153.722 117.461 154.094C113.168 156.988 110.366 158.671 105 158C108.734 155.511 112.65 153.461 116.602 151.34C118.882 150.209 118.882 150.209 120 149Z" fill="currentColor"/>
<path d="M7 158C7.66 158.33 8.32 158.66 9 159C7.6875 161 7.6875 161 6 163C5.01 163 4.02 163 3 163C3 166.63 3 170.26 3 174C0.35491 171.355 0.217664 169.7 0 166C1.63978 162.289 3.6268 160.21 7 158Z" fill="currentColor"/>
<path d="M110 79C110.33 79 110.66 79 111 79C111.17 79.6639 111.34 80.3277 111.516 81.0117C112.931 86.17 114.19 90.0588 118 94C116.68 94 115.36 94 114 94C113.01 94.495 113.01 94.495 112 95C110.615 89.5454 109.76 84.6328 110 79Z" fill="currentColor"/>
<path d="M47 161C43.37 162.98 39.74 164.96 36 167C36 166.34 36 165.68 36 165C35.34 164.67 34.68 164.34 34 164C38.3969 160.255 41.3856 159.596 47 161Z" fill="currentColor"/>
<path d="M166 167C168.31 167 170.62 167 173 167C173 167.66 173 168.32 173 169C173.66 169 174.32 169 175 169C175 169.99 175 170.98 175 172C176.32 172 177.64 172 179 172C179 172.66 179 173.32 179 174C174.173 172.587 170.284 170.57 166 168C166 167.67 166 167.34 166 167Z" fill="currentColor"/>
<path d="M30 147C30.66 147.33 31.32 147.66 32 148C30.75 150 30.75 150 29 152C27.68 152 26.36 152 25 152C25 152.66 25 153.32 25 154C23.02 154.33 21.04 154.66 19 155C22.5404 152.084 26.1627 149.499 30 147Z" fill="currentColor"/>
<path d="M2 112C2.12375 112.516 2.2475 113.031 2.375 113.562C3.18642 116.727 4.0946 119.861 5 123C4.34 123.66 3.68 124.32 3 125C0.887051 121.831 0.747494 121.004 0.812504 117.375C0.822172 116.18 0.822172 116.18 0.832035 114.961C1 113 1 113 2 112Z" fill="currentColor"/>
<path d="M149 106C152.995 106.615 155.745 108.706 159 111C156.367 112.316 155.198 111.748 152.375 111.062C151.558 110.868 150.74 110.673 149.898 110.473C148.959 110.239 148.959 110.239 148 110C148.33 108.68 148.66 107.36 149 106Z" fill="currentColor"/>
<path d="M132 30C127.426 32.4012 122.895 34.3684 118 36C117.34 35.67 116.68 35.34 116 35C117.909 33.9646 119.827 32.9471 121.75 31.9375C123.351 31.0848 123.351 31.0848 124.984 30.2148C128.026 28.9895 129.049 28.7465 132 30Z" fill="currentColor"/>
<path d="M46 91C47.2194 94.6582 46.6371 95.5845 45.1875 99.0625C44.8304 99.9404 44.4734 100.818 44.1055 101.723C43 104 43 104 41 106C41 104.35 41 102.7 41 101C41.66 101 42.32 101 43 101C43.1238 99.7213 43.2475 98.4425 43.375 97.125C43.75 93.25 43.75 93.25 46 91Z" fill="currentColor"/>
<path d="M23 97C23.33 97.99 23.66 98.98 24 100C22.3768 102.435 21.1993 104.172 19 106C16.1875 106.375 16.1875 106.375 14 106C17 103 20 100 23 97Z" fill="currentColor"/>
<path d="M41 38C41.33 38.66 41.66 39.32 42 40C40.3562 44.6718 38.8152 47.711 35 51C35.4832 45.8454 38.1861 42.1845 41 38Z" fill="currentColor"/>
<path d="M31 171C26.358 173.533 22.3484 175.465 17 176C18.5441 172.912 20.8287 172.069 23.9375 170.813C27.0331 169.991 28.0634 170.106 31 171Z" fill="currentColor"/>
<path d="M59 158C63.875 158.875 63.875 158.875 65 160C66.9996 160.041 69.0005 160.043 71 160C70.67 160.99 70.34 161.98 70 163C65.8053 162.401 61.99 161.425 58 160C58.33 159.34 58.66 158.68 59 158Z" fill="currentColor"/>
<path d="M180 103C183.63 104.32 187.26 105.64 191 107C191 107.33 191 107.66 191 108C188.36 108.33 185.72 108.66 183 109C182.67 107.68 182.34 106.36 182 105C181.34 105 180.68 105 180 105C180 104.34 180 103.68 180 103Z" fill="currentColor"/>
<path d="M172 148C176.776 149.642 180.794 152.265 185 155C183.156 155.613 183.156 155.613 181 156C178.5 154.188 178.5 154.188 176 152C174.689 151.291 173.362 150.605 172 150C172 149.34 172 148.68 172 148Z" fill="currentColor"/>
<path d="M173 121C178.445 121.99 178.445 121.99 184 123C184.33 123.99 184.66 124.98 185 126C180.435 125.457 177.027 124.205 173 122C173 121.67 173 121.34 173 121Z" fill="currentColor"/>
<path d="M192 158C196.314 158.479 198.166 159.746 201 163C200.67 163.66 200.34 164.32 200 165C198.68 164.67 197.36 164.34 196 164C196 162.68 196 161.36 196 160C194.68 159.67 193.36 159.34 192 159C192 158.67 192 158.34 192 158Z" fill="currentColor"/>
<path d="M68 31C68.66 31 69.32 31 70 31C70 31.66 70 32.32 70 33C70.66 33.33 71.32 33.66 72 34C70.35 35.32 68.7 36.64 67 38C66.34 37.67 65.68 37.34 65 37C65.33 36.01 65.66 35.02 66 34C66.99 34.33 67.98 34.66 69 35C68.67 33.68 68.34 32.36 68 31Z" fill="currentColor"/>
<path d="M116 36C116 36.99 116 37.98 116 39C114.886 39.4331 114.886 39.4331 113.75 39.875C111.433 40.823 109.221 41.8485 107 43C112.342 36 112.342 36 116 36Z" fill="currentColor"/>
<path d="M24 122C23 124 23 124 20.625 125.187C18 126 18 126 15 125C18.0719 122.269 19.9041 121.659 24 122Z" fill="currentColor"/>
<path d="M106 43C106 47.3897 103.872 48.7691 101 52C101 47.6103 103.128 46.2309 106 43Z" fill="currentColor"/>
</svg>
