<svg width="386" height="308" viewBox="0 0 386 308" fill="currentColor">
<path d="M124.917 1.60559C125.887 1.5995 126.857 1.59341 127.857 1.58713C131.093 1.57054 134.329 1.57527 137.565 1.58008C139.892 1.57273 142.218 1.56415 144.545 1.55441C150.855 1.53221 157.165 1.52926 163.475 1.53116C168.748 1.53128 174.021 1.52271 179.295 1.51438C192.451 1.49361 205.606 1.493 218.763 1.50019C230.167 1.50576 241.572 1.48495 252.977 1.45183C264.707 1.41803 276.437 1.40293 288.166 1.40754C294.744 1.40961 301.322 1.40417 307.899 1.37965C314.088 1.35734 320.277 1.3593 326.466 1.37958C328.731 1.38298 330.996 1.37793 333.262 1.3636C349.179 1.26985 360.822 2.00394 372.809 13.6055C380.251 21.7376 384.474 30.3343 384.394 41.3981C384.401 42.205 384.407 43.012 384.413 43.8433C384.429 46.5269 384.425 49.21 384.42 51.8936C384.427 53.826 384.436 55.7584 384.446 57.6908C384.468 62.9266 384.471 68.1621 384.469 73.3979C384.469 77.7764 384.477 82.1548 384.486 86.5332C384.505 96.8685 384.508 107.204 384.501 117.539C384.494 128.182 384.517 138.824 384.554 149.467C384.585 158.621 384.596 167.774 384.592 176.928C384.59 182.388 384.596 187.847 384.62 193.307C384.643 198.445 384.641 203.583 384.62 208.722C384.617 210.6 384.622 212.478 384.636 214.357C384.73 227.481 383.402 238.591 374.785 249.191C367.105 256.972 357.385 262.1 346.407 262.481C343.881 262.493 341.355 262.482 338.83 262.454C337.429 262.453 336.029 262.454 334.628 262.456C330.856 262.457 327.084 262.434 323.312 262.406C319.359 262.38 315.406 262.378 311.453 262.373C303.98 262.361 296.508 262.328 289.035 262.288C280.523 262.243 272.01 262.221 263.497 262.201C245.998 262.16 228.499 262.089 211 262C210.678 260.925 210.355 259.85 210.023 258.742C209.584 257.304 209.146 255.867 208.707 254.43C208.496 253.724 208.286 253.019 208.068 252.292C206.316 246.586 203.979 241.513 201.137 236.258C200 234 200 234 200 232C207.92 232 215.84 232 224 232C223.882 227.004 223.882 227.004 223.73 222.009C223.658 215.916 225.287 211.991 229.312 207.312C234.384 202.949 238.541 201.625 245.195 201.612C245.889 201.607 246.582 201.601 247.297 201.596C249.573 201.583 251.849 201.591 254.125 201.602C255.716 201.6 257.308 201.597 258.899 201.593C262.228 201.588 265.556 201.595 268.885 201.609C273.142 201.626 277.398 201.616 281.655 201.598C284.939 201.587 288.223 201.591 291.507 201.599C293.076 201.601 294.646 201.598 296.215 201.591C298.412 201.583 300.608 201.595 302.805 201.612C304.052 201.614 305.3 201.617 306.585 201.619C312.348 202.262 316.134 204.615 319.812 209C320.396 209.681 320.98 210.361 321.582 211.062C324.565 215.139 324.117 219.369 324.062 224.187C324.058 224.937 324.053 225.687 324.049 226.459C324.037 228.306 324.019 230.153 324 232C327.188 231.918 330.375 231.806 333.562 231.687C334.458 231.665 335.353 231.642 336.275 231.619C341.836 231.395 346.209 230.953 351 228C353.01 223.454 353.253 219.424 353.261 214.492C353.265 213.757 353.268 213.022 353.272 212.264C353.283 209.811 353.279 207.359 353.275 204.906C353.279 203.144 353.284 201.381 353.29 199.618C353.304 194.837 353.304 190.056 353.302 185.275C353.301 181.281 353.305 177.288 353.31 173.294C353.321 163.872 353.322 154.45 353.316 145.028C353.31 135.312 353.322 125.596 353.343 115.88C353.361 107.534 353.367 99.1872 353.364 90.8405C353.362 85.8576 353.364 80.8749 353.378 75.892C353.391 71.206 353.389 66.5202 353.376 61.8343C353.374 60.1166 353.376 58.3989 353.385 56.6813C353.395 54.3322 353.387 51.9839 353.374 49.6349C353.374 48.3218 353.375 47.0086 353.375 45.6557C352.926 41.275 352.235 38.8003 350 35C345.288 32.4474 340.211 32.7156 334.974 32.7393C334.075 32.7355 333.176 32.7317 332.251 32.7277C329.245 32.7174 326.24 32.7214 323.235 32.7253C321.078 32.721 318.921 32.7158 316.764 32.7099C310.908 32.6965 305.053 32.6959 299.198 32.6984C294.309 32.6995 289.421 32.6946 284.533 32.6898C273.001 32.6787 261.469 32.6783 249.938 32.6843C238.041 32.6904 226.144 32.678 214.247 32.6568C204.032 32.6391 193.817 32.6331 183.602 32.6364C177.501 32.6382 171.401 32.6356 165.3 32.6217C159.563 32.6091 153.827 32.611 148.09 32.6241C145.986 32.6265 143.881 32.6237 141.776 32.6155C138.902 32.605 136.028 32.6131 133.153 32.6258C132.322 32.6184 131.49 32.611 130.634 32.6034C125.371 32.6523 121.648 33.4645 117 36C114.71 40.3801 114.667 44.9443 114.586 49.8047C114.567 50.5287 114.547 51.2526 114.527 51.9986C114.468 54.2906 114.421 56.5827 114.375 58.875C114.337 60.4375 114.298 62 114.258 63.5625C114.162 67.3748 114.078 71.1873 114 75C113.447 74.9394 112.893 74.8788 112.323 74.8164C109.757 74.5388 107.191 74.2694 104.625 74C103.755 73.9046 102.885 73.8092 101.988 73.7109C95.9697 73.0868 90.0492 72.8828 84 73C83.8752 67.5232 83.7851 62.0472 83.7253 56.5693C83.7004 54.7111 83.6664 52.853 83.6228 50.9951C83.3199 37.7516 83.5577 25.8557 93.25 15.625C102.346 6.22687 111.853 1.52778 124.917 1.60559Z" fill="currentColor"/>
<path d="M60.7751 221.823C61.9444 221.813 61.9444 221.813 63.1372 221.803C65.7152 221.783 68.2931 221.772 70.8711 221.762C71.7559 221.758 72.6406 221.754 73.5522 221.749C78.2421 221.729 82.9319 221.714 87.6218 221.705C92.4365 221.694 97.2506 221.659 102.065 221.62C105.791 221.593 109.517 221.585 113.243 221.582C115.016 221.577 116.789 221.565 118.562 221.546C137.318 221.361 152.754 225.5 166.786 238.624C176.869 248.533 184.032 262.821 184.234 277.102C184.242 278.227 184.242 278.227 184.25 279.375C184.281 280.489 184.281 280.489 184.312 281.625C184.357 287.867 182.825 291.879 178.688 296.687C173.896 300.81 169.851 302.374 163.548 302.381C161.631 302.394 161.631 302.394 159.674 302.407C158.27 302.401 156.865 302.395 155.461 302.388C153.972 302.392 152.484 302.398 150.995 302.404C146.962 302.418 142.929 302.412 138.896 302.403C134.671 302.395 130.445 302.402 126.22 302.407C119.125 302.413 112.03 302.405 104.936 302.391C96.7387 302.375 88.542 302.38 80.3452 302.397C73.3013 302.41 66.2574 302.412 59.2135 302.404C55.0092 302.4 50.805 302.399 46.6008 302.409C42.6477 302.418 38.6949 302.411 34.7419 302.394C33.2931 302.39 31.8443 302.391 30.3955 302.398C28.4143 302.406 26.4329 302.394 24.4517 302.381C22.7903 302.379 22.7903 302.379 21.0954 302.378C15.5155 301.697 11.7467 299.242 8.18749 295C7.60355 294.319 7.0196 293.639 6.41796 292.937C2.21406 287.193 3.44023 277.833 3.99999 271C6.90705 255.584 15.4846 242.532 27.6992 232.863C37.6845 226.143 48.7471 221.867 60.7751 221.823Z" fill="currentColor"/>
<path d="M118.547 107.461C120.777 108.897 122.897 110.385 125 112C125.826 112.629 126.653 113.258 127.504 113.906C136.153 121.161 141.608 131.008 144 142C145.308 157.516 143.618 170.37 134 183C133.278 184.011 132.556 185.021 131.812 186.063C124.539 194.431 113.106 201.232 101.9 202.177C83.4793 202.68 71.0367 199.73 57.3125 186.875C46.9112 176.182 43.5839 164.157 43.6343 149.636C43.9477 133.93 50.9718 123.244 61.9922 112.523C77.2767 99.7003 101.23 97.5276 118.547 107.461Z" fill="currentColor"/>
<path d="M126.88 30.8528C127.812 30.8492 128.743 30.8455 129.702 30.8417C132.842 30.8306 135.982 30.8268 139.122 30.823C141.365 30.8167 143.608 30.8101 145.852 30.8031C151.962 30.7857 158.071 30.7751 164.181 30.7669C167.997 30.7617 171.812 30.7557 175.628 30.7494C186.193 30.7325 196.758 30.7179 207.323 30.7106C210.066 30.7087 212.808 30.7068 215.551 30.7048C216.573 30.7041 216.573 30.7041 217.616 30.7034C228.652 30.6951 239.688 30.6697 250.724 30.6373C262.056 30.6042 273.388 30.5865 284.72 30.583C291.082 30.5806 297.444 30.5716 303.805 30.5465C309.792 30.5233 315.779 30.519 321.766 30.5293C323.962 30.5298 326.158 30.5234 328.354 30.5097C331.356 30.492 334.356 30.4991 337.358 30.5123C338.657 30.4958 338.657 30.4958 339.983 30.479C340.795 30.4876 341.608 30.4962 342.445 30.505C343.482 30.5035 343.482 30.5035 344.54 30.5021C347 31 347 31 355 35C355 98.36 355 161.72 355 227C354.01 227.33 353.02 227.66 352 228C352.162 227.165 352.324 226.33 352.491 225.469C353.035 221.76 353.132 218.241 353.14 214.492C353.143 213.757 353.146 213.022 353.149 212.264C353.158 209.812 353.16 207.359 353.161 204.906C353.166 203.144 353.171 201.381 353.176 199.618C353.189 194.837 353.196 190.056 353.2 185.275C353.203 182.287 353.207 179.299 353.212 176.311C353.225 166.958 353.235 157.605 353.239 148.252C353.243 137.461 353.261 126.671 353.29 115.881C353.312 107.534 353.322 99.1872 353.323 90.8405C353.324 85.8576 353.33 80.8749 353.348 75.892C353.364 71.206 353.366 66.5202 353.358 61.8343C353.357 60.1166 353.361 58.3989 353.371 56.6813C353.384 54.3322 353.378 51.9839 353.367 49.6349C353.369 48.3218 353.37 47.0086 353.372 45.6557C352.926 41.2731 352.237 38.8014 350 35C345.287 32.446 340.212 32.718 334.974 32.746C334.075 32.7429 333.176 32.7398 332.251 32.7366C329.245 32.7286 326.24 32.7349 323.235 32.7412C321.078 32.7385 318.921 32.7349 316.764 32.7306C310.908 32.7215 305.053 32.725 299.198 32.7313C293.07 32.7364 286.942 32.7317 280.814 32.7286C270.522 32.7249 260.23 32.7297 249.938 32.7393C238.041 32.7501 226.144 32.7466 214.247 32.7356C204.032 32.7265 193.817 32.7252 183.602 32.7305C177.501 32.7336 171.401 32.734 165.3 32.7274C159.563 32.7216 153.827 32.7256 148.09 32.7372C145.986 32.7398 143.881 32.7391 141.776 32.7347C138.902 32.7292 136.028 32.7361 133.153 32.746C131.906 32.7393 131.906 32.7393 130.634 32.7325C125.717 32.7655 121.666 33.4315 117 35C116.67 34.01 116.34 33.02 116 32C119.366 30.3168 123.177 30.8521 126.88 30.8528Z" fill="currentColor"/>
<path d="M380 25C383.879 28.8795 384.228 33.6059 384.272 38.9195C384.268 39.6669 384.265 40.4144 384.261 41.1845C384.265 41.9926 384.268 42.8006 384.272 43.6331C384.283 46.3321 384.279 49.0309 384.275 51.73C384.279 53.6686 384.284 55.6072 384.29 57.5458C384.304 62.8062 384.304 68.0665 384.302 73.3269C384.301 77.7205 384.305 82.1141 384.31 86.5077C384.321 96.8744 384.322 107.241 384.316 117.608C384.31 128.297 384.322 138.986 384.343 149.676C384.361 158.858 384.367 168.04 384.364 177.223C384.362 182.705 384.364 188.187 384.378 193.669C384.391 198.825 384.389 203.981 384.376 209.137C384.374 211.027 384.376 212.917 384.385 214.807C384.395 217.392 384.387 219.976 384.374 222.561C384.382 223.305 384.389 224.048 384.397 224.813C384.342 230.12 383.077 234.114 381 239C380.34 237.68 379.68 236.36 379 235C379.66 235 380.32 235 381 235C380.67 231.37 380.34 227.74 380 224C380.99 224 381.98 224 383 224C382.67 161.96 382.34 99.92 382 36C381.67 36 381.34 36 381 36C380.67 32.37 380.34 28.74 380 25Z" fill="currentColor"/>
<path d="M344 32C348.278 32.4936 351.096 33.0478 355 35C355 98.36 355 161.72 355 227C354.01 227.33 353.02 227.66 352 228C352.243 226.747 352.243 226.747 352.491 225.469C353.035 221.76 353.132 218.241 353.14 214.492C353.143 213.757 353.146 213.022 353.149 212.264C353.158 209.812 353.16 207.359 353.161 204.906C353.166 203.144 353.171 201.381 353.176 199.618C353.189 194.837 353.196 190.056 353.2 185.275C353.203 182.287 353.207 179.299 353.212 176.311C353.225 166.958 353.235 157.605 353.239 148.252C353.243 137.461 353.261 126.671 353.29 115.881C353.312 107.534 353.322 99.1872 353.323 90.8405C353.324 85.8576 353.33 80.8749 353.348 75.892C353.364 71.206 353.366 66.5202 353.358 61.8343C353.357 60.1166 353.361 58.3989 353.371 56.6813C353.384 54.3322 353.378 51.9839 353.367 49.6349C353.37 47.6652 353.37 47.6652 353.372 45.6557C352.936 41.3758 352.034 38.7766 350 35C346.948 33.4803 346.948 33.4803 344 33C344 32.67 344 32.34 344 32Z" fill="currentColor"/>
<path d="M182 289C182.33 289.66 182.66 290.32 183 291C179.721 296.549 176.305 299.898 170 302C167.958 302.092 165.913 302.122 163.869 302.12C162.586 302.122 161.303 302.123 159.981 302.124C158.556 302.121 157.131 302.117 155.706 302.114C154.208 302.113 152.71 302.113 151.212 302.114C147.142 302.114 143.073 302.108 139.003 302.101C134.75 302.095 130.498 302.095 126.246 302.093C118.193 302.09 110.139 302.082 102.086 302.072C92.9178 302.061 83.7498 302.055 74.5819 302.05C55.7212 302.04 36.8606 302.022 18 302C18 301.67 18 301.34 18 301C18.7408 300.998 19.4817 300.995 20.245 300.993C38.2815 300.934 56.3179 300.858 74.3543 300.764C83.0766 300.719 91.7989 300.68 100.521 300.654C108.125 300.631 115.728 300.597 123.332 300.551C127.357 300.527 131.381 300.509 135.406 300.502C139.198 300.496 142.989 300.476 146.78 300.446C148.169 300.437 149.557 300.433 150.946 300.435C158.063 300.441 163.664 300.357 170 297C172.938 296.812 172.938 296.812 175 297C175 296.34 175 295.68 175 295C175.99 294.67 176.98 294.34 178 294C178.699 292.684 179.367 291.35 180 290C180.66 289.67 181.32 289.34 182 289Z" fill="currentColor"/>
<path d="M20 240C20.33 240 20.66 240 21 240C20.6326 246.124 19.2135 248.787 15 253C14.34 253 13.68 253 13 253C12.67 255.64 12.34 258.28 12 261C11.01 261 10.02 261 9 261C9.02063 261.804 9.04125 262.609 9.0625 263.438C9 266 9 266 8 267C7.73209 269.694 7.52947 272.362 7.375 275.062C7.32344 275.802 7.27188 276.541 7.21875 277.303C6.91844 282.351 7.2395 287 8 292C8.66 292 9.32 292 10 292C10.66 291.34 11.32 290.68 12 290C12.66 290 13.32 290 14 290C13.67 291.98 13.34 293.96 13 296C14.32 296.33 15.64 296.66 17 297C17 298.32 17 299.64 17 301C11.4377 299.652 8.26557 295.433 5 291C1.10882 279.326 4.41236 265.74 9.39063 255C12.3087 249.348 15.6068 244.598 20 240Z" fill="currentColor"/>
<path d="M71.457 221.566C73.2501 221.562 75.0431 221.557 76.8361 221.551C80.5823 221.542 84.3283 221.544 88.0745 221.554C92.8419 221.565 97.6086 221.545 102.376 221.516C106.076 221.498 109.777 221.498 113.477 221.504C115.233 221.504 116.989 221.498 118.745 221.485C131.711 221.406 142.282 222.949 154 229C152.68 229.99 151.36 230.98 150 232C149.602 231.519 149.203 231.038 148.793 230.543C146.565 228.626 145.212 228.523 142.312 228.312C141.504 228.247 140.696 228.181 139.863 228.113C139.248 228.076 138.634 228.039 138 228C138 227.01 138 226.02 138 225C132.762 224.276 127.688 223.859 122.391 223.795C121.677 223.785 120.964 223.775 120.229 223.765C117.903 223.733 115.577 223.708 113.25 223.684C111.625 223.663 110 223.642 108.374 223.621C104.12 223.566 99.8652 223.516 95.6107 223.468C91.2599 223.417 86.9093 223.362 82.5586 223.307C74.0391 223.199 65.5196 223.098 57 223C57 223.66 57 224.32 57 225C55.8656 225.124 54.7313 225.247 53.5625 225.375C51.7991 225.684 51.7991 225.684 50 226C49.67 226.66 49.34 227.32 49 228C46.03 227.67 43.06 227.34 40 227C49.433 220.711 60.5712 221.542 71.457 221.566Z" fill="currentColor"/>
<path d="M209 251C209.99 251.33 210.98 251.66 212 252C212.99 254.97 213.98 257.94 215 261C260.54 261 306.08 261 353 261C353 261.33 353 261.66 353 262C306.14 262 259.28 262 211 262C210.34 258.37 209.68 254.74 209 251Z" fill="currentColor"/>
<path d="M21 240C20.6326 246.124 19.2135 248.787 15 253C14.34 253 13.68 253 13 253C12.67 255.64 12.34 258.28 12 261C11.01 261 10.02 261 9 261C9.06188 262.083 9.06188 262.083 9.125 263.188C8.99079 266.207 8.24829 268.269 7 271C6.34 271 5.68 271 5 271C5.47251 264.871 6.84801 260.364 9.6875 254.938C10.044 254.24 10.4005 253.543 10.7678 252.824C17.5039 240 17.5039 240 21 240Z" fill="currentColor"/>
<path d="M245.243 201.628C246.29 201.622 246.29 201.622 247.359 201.617C249.65 201.609 251.94 201.622 254.23 201.637C255.829 201.637 257.427 201.637 259.026 201.635C262.367 201.635 265.708 201.646 269.05 201.664C273.334 201.687 277.617 201.687 281.902 201.68C285.198 201.677 288.495 201.684 291.792 201.693C293.372 201.697 294.952 201.698 296.532 201.697C298.737 201.696 300.941 201.709 303.145 201.725C304.4 201.73 305.654 201.735 306.946 201.739C310 202 310 202 313 204C312.08 203.996 311.159 203.991 310.211 203.987C301.544 203.946 292.877 203.916 284.21 203.896C279.754 203.886 275.298 203.872 270.843 203.849C266.544 203.827 262.245 203.815 257.946 203.81C256.305 203.807 254.663 203.799 253.022 203.789C250.726 203.774 248.43 203.772 246.134 203.773C244.826 203.769 243.518 203.764 242.17 203.759C238.842 203.752 238.842 203.752 236 206C233.812 205.625 233.812 205.625 232 205C236.61 202.327 239.936 201.625 245.243 201.628Z" fill="currentColor"/>
<path d="M132 180C132.99 180.66 133.98 181.32 135 182C128.263 190.74 118.962 198.403 108 201C107.01 200.67 106.02 200.34 105 200C109.996 196.21 112.574 194.758 119 195C119 194.01 119 193.02 119 192C119.639 191.711 120.279 191.423 120.938 191.125C123.152 190.172 123.152 190.172 124 188C124.825 187.526 125.65 187.051 126.5 186.562C129.292 185.187 129.292 185.187 130 182C130.66 182 131.32 182 132 182C132 181.34 132 180.68 132 180Z" fill="currentColor"/>
<path d="M165 238C170.949 242.208 174.533 247.63 178 254C178 254.66 178 255.32 178 256C176.02 255.67 174.04 255.34 172 255C172 253.35 172 251.7 172 250C171.34 249.67 170.68 249.34 170 249C169.67 249.99 169.34 250.98 169 252C168.67 250.68 168.34 249.36 168 248C168.66 248 169.32 248 170 248C169.67 247.34 169.34 246.68 169 246C167.35 246.33 165.7 246.66 164 247C164.33 244.03 164.66 241.06 165 238Z" fill="currentColor"/>
<path d="M131 222C138.63 222.449 148.467 224.467 154 230C152.35 230.66 150.7 231.32 149 232C148.34 231.01 147.68 230.02 147 229C144.805 228.42 144.805 228.42 142.375 228.312C141.558 228.247 140.74 228.181 139.898 228.113C139.272 228.076 138.645 228.039 138 228C138 227.01 138 226.02 138 225C135.36 224.67 132.72 224.34 130 224C130.33 223.34 130.66 222.68 131 222Z" fill="currentColor"/>
<path d="M379 239C379.33 239.66 379.66 240.32 380 241C375.778 247.676 371.69 252.725 365 257C364.34 256.67 363.68 256.34 363 256C363.602 253.98 364.273 251.979 365 250C365.66 249.67 366.32 249.34 367 249C367 249.66 367 250.32 367 251C368.65 250.67 370.3 250.34 372 250C372 248.68 372 247.36 372 246C371.34 245.67 370.68 245.34 370 245C371.176 244.876 371.176 244.876 372.375 244.75C375.14 244.285 375.14 244.285 376.188 242C376.456 241.34 376.724 240.68 377 240C377.66 239.67 378.32 239.34 379 239Z" fill="currentColor"/>
<path d="M180 261C183.762 264.762 184.109 270.368 184.195 275.5C184.182 277 184.159 278.5 184.125 280C184.116 280.775 184.107 281.549 184.098 282.348C184.074 284.232 184.039 286.116 184 288C183.34 288 182.68 288 182 288C181.34 279.09 180.68 270.18 180 261Z" fill="currentColor"/>
<path d="M63 191C63.8456 191.309 64.6913 191.619 65.5625 191.938C68.9861 193.108 68.9861 193.108 72.625 193.438C76.0338 194.006 77.4988 194.699 80 197C79.34 197 78.68 197 78 197C78 197.66 78 198.32 78 199C79.98 199 81.96 199 84 199C84 199.66 84 200.32 84 201C76.9457 200.679 70.974 197.644 65 194C64.34 193.01 63.68 192.02 63 191Z" fill="currentColor"/>
<path d="M84 71C87.5 70.9707 90.9999 70.9531 94.5 70.9375C95.4823 70.9291 96.4645 70.9207 97.4766 70.9121C103.087 70.8934 108.452 71.1611 114 72C114 72.99 114 73.98 114 75C113.447 74.9394 112.893 74.8788 112.323 74.8164C109.757 74.5388 107.191 74.2694 104.625 74C103.32 73.8569 103.32 73.8569 101.988 73.7109C95.9697 73.0868 90.0492 72.8828 84 73C84 72.34 84 71.68 84 71Z" fill="currentColor"/>
<path d="M231 206C231.33 206.66 231.66 207.32 232 208C231.34 208 230.68 208 230 208C230.66 209.98 231.32 211.96 232 214C230.68 214.33 229.36 214.66 228 215C227.67 216.32 227.34 217.64 227 219C226.34 219 225.68 219 225 219C225 220.98 225 222.96 225 225C224.67 225 224.34 225 224 225C223.652 219.203 223.724 215.031 227 210C229.187 207.625 229.187 207.625 231 206Z" fill="currentColor"/>
<path d="M104 103C110.491 103.423 115.335 105.911 121 109C118.171 109.809 115.689 110.111 112.75 110.062C110.894 110.032 110.894 110.032 109 110C109 109.01 109 108.02 109 107C106.525 106.01 106.525 106.01 104 105C104 104.34 104 103.68 104 103Z" fill="currentColor"/>
<path d="M371 13C378.095 18.5187 378.095 18.5187 380 23C379.688 25.8125 379.688 25.8125 379 28C378.01 28 377.02 28 376 28C376 27.01 376 26.02 376 25C376.66 25 377.32 25 378 25C378 24.01 378 23.02 378 22C376.02 22 374.04 22 372 22C372 20.68 372 19.36 372 18C371.34 17.67 370.68 17.34 370 17C370.33 15.68 370.66 14.36 371 13Z" fill="currentColor"/>
<path d="M53 122C54.3163 124.633 53.7481 125.802 53.0625 128.625C52.8679 129.442 52.6732 130.26 52.4727 131.102C52.2387 132.041 52.2387 132.041 52 133C51.01 133 50.02 133 49 133C48.67 134.98 48.34 136.96 48 139C47.34 139 46.68 139 46 139C45.67 139.99 45.34 140.98 45 142C45.3052 135.285 48.1733 126.827 53 122Z" fill="currentColor"/>
<path d="M182 289C182.33 289.66 182.66 290.32 183 291C180.68 294.729 178.797 297.732 175 300C171.984 300.512 171.984 300.512 168.75 300.688C167.672 300.753 166.595 300.819 165.484 300.887C164.255 300.943 164.255 300.943 163 301C167.273 298.151 169.782 296.71 175 297C175 296.34 175 295.68 175 295C175.99 294.67 176.98 294.34 178 294C178.699 292.684 179.367 291.35 180 290C180.66 289.67 181.32 289.34 182 289Z" fill="currentColor"/>
<path d="M61 222C59.68 222.33 58.36 222.66 57 223C57 223.66 57 224.32 57 225C55.8656 225.124 54.7313 225.248 53.5625 225.375C51.7991 225.684 51.7991 225.684 50 226C49.67 226.66 49.34 227.32 49 228C46.03 227.67 43.06 227.34 40 227C46.407 222.729 53.4213 221.579 61 222Z" fill="currentColor"/>
<path d="M209 251C209.99 251.33 210.98 251.66 212 252C213.339 254.914 214.088 257.915 215 261C218.3 261 221.6 261 225 261C225 261.33 225 261.66 225 262C220.38 262 215.76 262 211 262C210.34 258.37 209.68 254.74 209 251Z" fill="currentColor"/>
<path d="M142 154C142.66 154 143.32 154 144 154C144.365 160.573 143.136 165.795 141 172C140.67 172 140.34 172 140 172C139.946 169.375 139.906 166.751 139.875 164.125C139.858 163.379 139.842 162.632 139.824 161.863C139.807 159.908 139.897 157.953 140 156C140.66 155.34 141.32 154.68 142 154Z" fill="currentColor"/>
<path d="M200 232C200.99 232.33 201.98 232.66 203 233C203 233.99 203 234.98 203 236C203.66 236.33 204.32 236.66 205 237C204.67 237.66 204.34 238.32 204 239C204.66 239 205.32 239 206 239C208.285 242.199 209.68 245.057 210 249C209.34 249.66 208.68 250.32 208 251C206.66 248.211 205.329 245.419 204 242.625C203.618 241.831 203.237 241.037 202.844 240.219C202.483 239.458 202.122 238.698 201.75 237.914C201.415 237.212 201.08 236.511 200.734 235.788C200 234 200 234 200 232Z" fill="currentColor"/>
<path d="M107 6C107 6.66 107 7.32 107 8C106.01 8 105.02 8 104 8C104 9.65 104 11.3 104 13C97.375 16.125 97.375 16.125 94 15C95.4559 13.6849 96.9148 12.373 98.375 11.0625C99.1871 10.3316 99.9992 9.6007 100.836 8.84766C104.171 6 104.171 6 107 6Z" fill="currentColor"/>
<path d="M351 228C351.66 228.99 352.32 229.98 353 231C349.507 233.329 348.14 233.236 344.02 233.195C342.274 233.186 342.274 233.186 340.494 233.176C339.279 233.159 338.064 233.142 336.812 233.125C335.586 233.116 334.359 233.107 333.096 233.098C330.064 233.074 327.032 233.041 324 233C324 232.67 324 232.34 324 232C324.854 231.978 324.854 231.978 325.725 231.956C328.338 231.881 330.95 231.784 333.562 231.688C334.905 231.654 334.905 231.654 336.275 231.619C341.891 231.393 345.987 230.565 351 228Z" fill="currentColor"/>
<path d="M380 224C381.32 224 382.64 224 384 224C384.363 229.802 383.257 233.64 381 239C380.34 237.68 379.68 236.36 379 235C379.66 235 380.32 235 381 235C380.67 231.37 380.34 227.74 380 224Z" fill="currentColor"/>
<path d="M87 25C88.8878 31.1462 87.8547 38.2905 85 44C84.67 44 84.34 44 84 44C83.6463 36.874 84.0433 31.5294 87 25Z" fill="currentColor"/>
<path d="M154 230C158.593 231.486 161.436 233.85 165 237C164.34 237.66 163.68 238.32 163 239C156.25 235.25 156.25 235.25 154 233C154 232.01 154 231.02 154 230Z" fill="currentColor"/>
<path d="M92 102C90.68 102.33 89.36 102.66 88 103C88 103.66 88 104.32 88 105C87.3477 105.061 86.6955 105.121 86.0234 105.184C81.3128 105.635 76.658 106.142 72 107C77.0373 101.963 85.2414 101.625 92 102Z" fill="currentColor"/>
<path d="M53 181C55.31 181.66 57.62 182.32 60 183C60 184.32 60 185.64 60 187C61.32 187.33 62.64 187.66 64 188C64 188.99 64 189.98 64 191C60.8133 189.597 58.6778 187.922 56.25 185.438C55.6364 184.817 55.0228 184.197 54.3906 183.559C53 182 53 182 53 181Z" fill="currentColor"/>
<path d="M344 32C348.278 32.4936 351.096 33.0478 355 35C355 38.63 355 42.26 355 46C353 42 353 42 351.75 38.375C350.309 34.7431 350.309 34.7431 346.812 33.5625C345.42 33.2841 345.42 33.2841 344 33C344 32.67 344 32.34 344 32Z" fill="currentColor"/>
<path d="M121 110C124.438 111.528 127.19 113.502 130 116C130 116.66 130 117.32 130 118C127.75 118.375 127.75 118.375 125 118C121 113.027 121 113.027 121 110Z" fill="currentColor"/>
<path d="M36 229C36 229.99 36 230.98 36 232C35.34 232.66 34.68 233.32 34 234C34 234.66 34 235.32 34 236C31.69 235.67 29.38 235.34 27 235C32.8462 229 32.8462 229 36 229Z" fill="currentColor"/>
<path d="M315 205C316.155 205.905 317.299 206.824 318.438 207.75C319.076 208.26 319.714 208.771 320.371 209.297C322.188 211.197 322.604 212.436 323 215C319.313 214.003 318.206 213.342 316.188 210C315 207 315 207 315 205Z" fill="currentColor"/>
<path d="M165 238C167 239.25 167 239.25 169 241C169 242.32 169 243.64 169 245C167.35 245.66 165.7 246.32 164 247C164.33 244.03 164.66 241.06 165 238Z" fill="currentColor"/>
<path d="M140 132C143.842 137.762 144.235 143.292 144 150C143.67 150 143.34 150 143 150C140.572 144.173 140.383 138.224 140 132Z" fill="currentColor"/>
<path d="M8 258C10 261 10 261 9.53906 263.48C9.23742 264.374 8.93578 265.267 8.625 266.188C8.32852 267.089 8.03203 267.99 7.72656 268.918C7.36691 269.949 7.36691 269.949 7 271C6.34 271 5.68 271 5 271C5.47939 266.286 5.96834 262.334 8 258Z" fill="currentColor"/>
<path d="M13 251C14.2735 253.547 13.8019 254.428 13.0625 257.125C12.7705 258.212 12.7705 258.212 12.4727 259.32C12.3167 259.875 12.1607 260.429 12 261C11.01 260.67 10.02 260.34 9 260C9.61538 254.462 9.61538 254.462 11.5625 252.125C12.0369 251.754 12.5112 251.382 13 251Z" fill="currentColor"/>
<path d="M134 122C137.483 125.019 138.792 127.569 140 132C139.01 132 138.02 132 137 132C136.67 131.01 136.34 130.02 136 129C135.34 128.67 134.68 128.34 134 128C134 126.02 134 124.04 134 122Z" fill="currentColor"/>
<path d="M123 3C123 3.66 123 4.32 123 5C123.66 5.33 124.32 5.66 125 6C120.31 7.11659 117.462 6.8062 113 5C116.644 2.57055 118.712 2.8382 123 3Z" fill="currentColor"/>
<path d="M9 295C11.64 295.33 14.28 295.66 17 296C17 297.65 17 299.3 17 301C13.086 299.731 11.2093 298.488 9 295Z" fill="currentColor"/>
<path d="M137 172C137.99 172 138.98 172 140 172C138.909 175.775 138.092 178.47 135 181C134.67 179.35 134.34 177.7 134 176C134.99 176 135.98 176 137 176C137 174.68 137 173.36 137 172Z" fill="currentColor"/>
<path d="M380 25C382.517 27.517 383.11 29.5755 384 33C383.625 35.375 383.625 35.375 383 37C382.34 36.67 381.68 36.34 381 36C380.586 33.4961 380.586 33.4961 380.375 30.4375C380.3 29.4256 380.225 28.4137 380.148 27.3711C380.099 26.5886 380.05 25.8062 380 25Z" fill="currentColor"/>
<path d="M379 239C379.33 239.66 379.66 240.32 380 241C378.35 243.31 376.7 245.62 375 248C374.34 247.01 373.68 246.02 373 245C373.66 244.67 374.32 244.34 375 244C375.33 243.34 375.66 242.68 376 242C377 240 377 240 379 239Z" fill="currentColor"/>
<path d="M231 206C231.33 206.66 231.66 207.32 232 208C231.34 208 230.68 208 230 208C230 209.32 230 210.64 230 212C229.34 212 228.68 212 228 212C227.67 212.99 227.34 213.98 227 215C226.34 215 225.68 215 225 215C226.312 211.063 227.919 208.773 231 206Z" fill="currentColor"/>
<path d="M378 231C378.33 231.66 378.66 232.32 379 233C379.66 233 380.32 233 381 233C381 233.66 381 234.32 381 235C380.34 235 379.68 235 379 235C379.33 236.32 379.66 237.64 380 239C379.01 239.495 379.01 239.495 378 240C377.34 237.69 376.68 235.38 376 233C376.66 233 377.32 233 378 233C378 232.34 378 231.68 378 231Z" fill="currentColor"/>
<path d="M351 228C351.66 228.99 352.32 229.98 353 231C350 233 350 233 346.812 232.625C345.884 232.419 344.956 232.213 344 232C344.897 231.567 344.897 231.567 345.812 231.125C348.193 229.953 348.193 229.953 351 228Z" fill="currentColor"/>
<path d="M132 180C132.99 180.66 133.98 181.32 135 182C131.535 184.97 131.535 184.97 128 188C127.67 187.34 127.34 186.68 127 186C127.66 185.67 128.32 185.34 129 185C129.33 184.01 129.66 183.02 130 182C130.66 182 131.32 182 132 182C132 181.34 132 180.68 132 180Z" fill="currentColor"/>
<path d="M124 31C124 31.66 124 32.32 124 33C121.69 33.66 119.38 34.32 117 35C116.67 34.01 116.34 33.02 116 32C118.709 30.6456 121.009 30.935 124 31Z" fill="currentColor"/>
<path d="M363 257C360.062 259.503 357.821 260.469 354 261C354.33 260.01 354.66 259.02 355 258C357.709 256.646 360.009 256.935 363 257Z" fill="currentColor"/>
<path d="M366 249C366.33 249.66 366.66 250.32 367 251C367.66 251.33 368.32 251.66 369 252C368.01 252.33 367.02 252.66 366 253C365.267 255.015 365.267 255.015 365 257C364.34 256.67 363.68 256.34 363 256C364.875 250.125 364.875 250.125 366 249Z" fill="currentColor"/>
<path d="M46 139C46.33 139 46.66 139 47 139C47.9247 143.716 48.2292 146.673 46 151C45.67 151 45.34 151 45 151C44.9729 149.563 44.9535 148.125 44.9375 146.688C44.9259 145.887 44.9143 145.086 44.9023 144.262C45 142 45 142 46 139Z" fill="currentColor"/>
<path d="M72 107C71.375 108.938 71.375 108.938 70 111C66.875 111.75 66.875 111.75 64 112C68.8387 107 68.8387 107 72 107Z" fill="currentColor"/>
<path d="M93 16C93.33 16.66 93.66 17.32 94 18C93.0625 20.125 93.0625 20.125 92 22C91.34 22 90.68 22 90 22C90 22.99 90 23.98 90 25C89.34 25 88.68 25 88 25C89.2492 21.5407 90.6753 18.8531 93 16Z" fill="currentColor"/>
<path d="M172 252C173.65 252 175.3 252 177 252C177.33 253.32 177.66 254.64 178 256C175.03 255.505 175.03 255.505 172 255C172 254.01 172 253.02 172 252Z" fill="currentColor"/>
<path d="M240.375 202.313C240.911 202.539 241.447 202.766 242 203C236.585 206.077 236.585 206.077 233.625 205.688C232.821 205.347 232.821 205.347 232 205C237.415 201.923 237.415 201.923 240.375 202.313Z" fill="currentColor"/>
<path d="M111.25 197.313C112.116 197.653 112.116 197.653 113 198C110.688 199.563 110.688 199.563 108 201C107.01 200.67 106.02 200.34 105 200C108.446 196.923 108.446 196.923 111.25 197.313Z" fill="currentColor"/>
<path d="M377 20C378.562 21.1875 378.562 21.1875 380 23C379.688 25.6875 379.688 25.6875 379 28C378.01 28 377.02 28 376 28C376 27.01 376 26.02 376 25C376.66 25 377.32 25 378 25C377.67 23.35 377.34 21.7 377 20Z" fill="currentColor"/>
<path d="M366 9C367.98 9.99 367.98 9.99 370 11C370 11.99 370 12.98 370 14C368.68 14.33 367.36 14.66 366 15C366 13.02 366 11.04 366 9Z" fill="currentColor"/>
<path d="M353 3C358.75 3.75 358.75 3.75 361 6C357.377 7.20776 356.359 6.54311 353 5C353 4.34 353 3.68 353 3Z" fill="currentColor"/>
</svg>
